<?xml version="1.0" standalone="no"?>
<!DOCTYPE svg PUBLIC "-//W3C//DTD SVG 20010904//EN"
 "http://www.w3.org/TR/2001/REC-SVG-20010904/DTD/svg10.dtd">
<svg version="1.0" xmlns="http://www.w3.org/2000/svg"
 width="640.000000pt" height="262.000000pt" viewBox="0 0 640.000000 262.000000"
 preserveAspectRatio="xMidYMid meet">

<g transform="translate(0.000000,262.000000) scale(0.100000,-0.100000)"
fill="#000000" stroke="none">
<path d="M1145 1946 c-140 -28 -272 -89 -375 -173 -114 -93 -170 -183 -191
-309 -33 -192 75 -321 275 -332 136 -7 238 32 345 132 117 111 144 262 64 357
-36 42 -80 59 -156 59 -79 0 -150 -33 -206 -96 -46 -53 -81 -164 -50 -164 5 0
8 4 4 9 -3 6 0 32 7 58 24 95 144 183 252 183 49 0 114 -31 141 -67 29 -41 33
-138 7 -196 -72 -163 -309 -284 -485 -247 -139 28 -211 146 -186 301 45 282
386 483 789 466 209 -9 343 -66 432 -183 l42 -56 -35 -26 c-83 -65 -221 -200
-364 -357 -244 -266 -333 -337 -508 -403 l-92 -34 -200 17 c-131 12 -243 16
-325 12 -176 -8 -252 -37 -178 -68 51 -22 421 -18 563 5 99 16 125 17 254 6
383 -34 647 35 802 209 60 67 123 188 139 268 17 79 8 245 -15 302 l-19 45 40
34 c61 53 181 120 269 149 68 23 98 27 200 27 112 1 123 -1 172 -26 67 -36 95
-76 101 -144 7 -84 -4 -121 -53 -173 -59 -63 -138 -101 -224 -108 -90 -8 -133
2 -170 36 -47 44 -42 106 12 171 13 15 8 12 -12 -7 -29 -26 -35 -40 -39 -85
-3 -44 0 -58 19 -82 90 -114 343 -71 441 75 37 56 53 138 38 197 -16 63 -40
93 -102 127 -46 26 -65 30 -153 33 -163 6 -316 -40 -476 -143 -38 -25 -74 -45
-79 -45 -5 0 -11 8 -15 19 -8 26 -111 122 -165 154 -25 14 -81 38 -125 53 -67
23 -100 27 -210 30 -83 2 -155 -2 -200 -10z m733 -338 c48 -195 -10 -379 -169
-538 -100 -100 -219 -166 -363 -201 -85 -20 -309 -27 -418 -13 l-51 7 89 32
c116 41 221 96 314 166 92 69 155 130 289 284 116 132 281 305 292 305 3 0 11
-19 17 -42z m-1298 -728 c130 -11 193 -20 187 -26 -9 -10 -448 -25 -534 -18
-130 9 -123 27 15 44 98 11 202 11 332 0z"/>
<path d="M3230 1145 c0 -343 3 -525 10 -525 7 0 10 182 10 525 0 343 -3 525
-10 525 -7 0 -10 -182 -10 -525z"/>
<path d="M4448 1419 c-21 -10 -45 -34 -54 -52 l-16 -32 31 37 c47 55 134 74
206 44 64 -27 69 -81 12 -117 -43 -25 -162 -25 -322 1 -144 24 -195 25 -262 5
-70 -21 -103 -61 -103 -123 0 -34 7 -58 25 -85 25 -36 25 -37 5 -37 -31 0
-108 -42 -171 -94 -69 -57 -158 -161 -284 -336 -115 -159 -103 -145 -112 -137
-8 9 91 156 260 382 92 124 130 181 120 183 -9 2 -34 -10 -57 -27 -92 -70
-180 -131 -188 -131 -19 0 -5 29 42 87 55 68 57 73 35 73 -21 0 -78 -30 -71
-37 3 -3 -8 -21 -25 -41 -39 -44 -53 -80 -39 -97 16 -20 62 -1 143 56 37 27
67 46 67 43 0 -3 -63 -92 -140 -198 -138 -191 -205 -300 -194 -317 12 -21 45
-6 76 34 19 23 75 98 124 166 83 115 278 333 254 284 -22 -47 -3 -83 44 -83
30 0 104 41 140 78 56 55 57 75 6 127 -36 37 -44 51 -48 94 -4 45 -2 53 25 79
54 55 146 59 356 16 98 -19 220 -22 269 -5 89 30 105 126 28 166 -42 22 -136
19 -182 -6z m-441 -401 c-14 -56 -134 -155 -158 -131 -19 19 36 94 105 145 43
31 63 26 53 -14z"/>
<path d="M2219 1078 c-150 -135 -203 -178 -221 -178 -17 0 -17 2 -4 28 8 15
33 50 55 77 42 52 39 69 -6 40 -24 -16 -27 -16 -35 -1 -5 9 -22 16 -37 16 -43
0 -192 -82 -177 -98 3 -2 1 -15 -4 -28 -5 -13 -7 -31 -4 -39 10 -24 74 -19
115 9 l36 25 -5 -25 c-4 -22 -1 -24 30 -24 40 0 96 36 176 113 28 28 52 46 52
40 0 -7 -4 -14 -9 -18 -16 -9 -213 -272 -294 -393 -79 -115 -95 -162 -58 -162
23 0 47 28 175 205 174 241 309 386 347 373 6 -2 -9 -27 -35 -58 -57 -66 -61
-100 -13 -100 33 0 85 26 124 62 l22 21 -6 -36 c-5 -32 -2 -38 20 -48 47 -21
108 3 211 83 l30 22 -27 -39 c-51 -75 -26 -87 50 -25 110 91 151 120 174 122
20 3 23 -1 21 -20 -3 -20 0 -23 20 -20 17 2 23 9 23 28 0 23 -4 25 -42 24 -43
-1 -77 -19 -158 -86 l-39 -33 34 48 c19 27 38 51 42 53 15 9 8 24 -10 24 -10
0 -56 -32 -103 -70 -88 -74 -133 -100 -168 -100 -27 0 -40 29 -19 44 8 6 13
16 11 22 -6 17 87 98 99 86 16 -16 -8 -49 -50 -71 -20 -11 -33 -20 -29 -21 18
-1 107 51 115 67 41 79 -93 44 -215 -55 -93 -76 -141 -84 -87 -16 16 20 37 47
47 60 22 29 16 54 -13 54 -78 0 -197 -125 -437 -461 -66 -91 -108 -136 -83
-89 34 67 279 400 446 608 48 59 -1 37 -87 -40z m-219 -47 c0 -27 -41 -73 -97
-110 -83 -55 -100 -30 -30 46 67 73 127 103 127 64z"/>
<path d="M4131 1030 c-62 -34 -87 -54 -89 -73 -10 -66 -8 -72 26 -75 20 -2 49
5 73 17 39 21 39 21 39 1 0 -32 58 -27 106 10 99 75 100 75 83 55 -9 -11 -24
-35 -33 -52 -15 -31 -15 -33 0 -33 20 0 88 49 80 58 -3 3 10 27 29 54 62 86
36 94 -55 16 -91 -78 -131 -108 -146 -108 -26 0 -13 26 59 113 40 49 32 64
-17 32 -21 -14 -24 -14 -29 0 -10 24 -67 18 -126 -15z m119 3 c0 -24 -35 -63
-93 -107 -97 -72 -106 -27 -13 62 64 62 106 79 106 45z"/>
<path d="M4540 1039 c-50 -31 -121 -91 -116 -97 3 -3 23 11 45 31 46 42 78 62
109 72 19 5 22 3 22 -20 0 -22 4 -26 23 -23 16 2 22 10 22 28 0 21 -5 25 -35
28 -22 1 -48 -5 -70 -19z"/>
<path d="M4730 1018 c-118 -97 -146 -118 -157 -118 -7 0 -19 16 -27 35 -10 24
-22 35 -35 35 -18 0 -20 -5 -15 -32 9 -54 12 -58 41 -58 35 0 78 26 165 101
102 88 109 82 31 -25 -77 -104 -51 -103 92 4 92 69 135 93 135 76 0 -3 -22
-35 -50 -71 -86 -113 -62 -115 84 -5 133 99 168 109 102 27 -64 -79 -68 -107
-18 -107 30 0 83 29 124 68 34 32 45 24 23 -17 -9 -18 -13 -36 -9 -42 9 -15
78 -5 109 15 37 24 61 64 46 79 -8 8 -11 8 -11 0 0 -16 -62 -83 -77 -83 -22 0
-15 16 38 85 80 105 53 101 -102 -14 -131 -96 -149 -96 -78 3 42 59 45 86 9
86 -30 0 -76 -25 -149 -83 l-64 -50 37 49 c40 52 43 77 9 82 -28 4 -66 -16
-147 -77 l-65 -50 35 54 c20 30 33 59 29 64 -13 22 -55 10 -105 -31z m540 -22
c0 -2 -8 -10 -17 -17 -16 -13 -17 -12 -4 4 13 16 21 21 21 13z"/>
<path d="M5500 1042 c-36 -25 -144 -135 -122 -123 17 9 18 7 15 -13 -6 -29 17
-39 54 -25 32 12 116 79 109 86 -3 3 -24 -11 -47 -31 -79 -68 -85 -40 -11 54
20 25 40 51 45 58 14 19 -14 15 -43 -6z"/>
<path d="M5662 1040 c-56 -25 -98 -56 -101 -72 -9 -66 -6 -82 21 -92 40 -14
98 7 174 64 36 28 67 50 70 50 3 0 -6 -15 -20 -33 -36 -47 -35 -77 4 -77 63 0
140 61 124 98 -7 16 -7 16 -11 0 -3 -10 -8 -18 -13 -18 -5 0 -12 -9 -15 -20
-3 -11 -16 -25 -27 -31 -42 -23 -35 9 18 79 71 93 51 95 -71 6 -138 -100 -198
-125 -211 -90 -7 19 10 50 58 102 49 53 73 58 63 14 -5 -23 -3 -30 9 -30 19 0
38 33 30 54 -8 22 -50 20 -102 -4z"/>
<path d="M6010 994 c-69 -66 -77 -87 -44 -115 19 -16 90 20 134 68 l35 37 -54
-42 c-88 -69 -97 -50 -21 47 28 36 50 66 50 68 0 2 -7 3 -16 3 -9 0 -47 -30
-84 -66z"/>
<path d="M6207 1023 c-12 -11 -7 -43 6 -43 17 0 37 20 37 37 0 13 -32 18 -43
6z"/>
<path d="M3494 988 l-29 -33 30 25 c17 14 34 28 40 32 5 5 5 8 -1 8 -6 0 -23
-15 -40 -32z"/>
<path d="M2957 939 c-27 -21 -54 -39 -61 -39 -7 0 -19 15 -27 33 -8 19 -23 33
-35 35 -19 3 -20 -1 -15 -40 6 -40 8 -43 39 -46 37 -4 81 20 126 67 39 41 31
38 -27 -10z"/>
<path d="M6156 914 c-29 -28 -16 -48 20 -32 26 12 33 48 10 48 -8 0 -22 -7
-30 -16z"/>
</g>
</svg>
