<svg fill="#ffffff" version="1.1" id="Capa_1" xmlns="http://www.w3.org/2000/svg" xmlns:xlink="http://www.w3.org/1999/xlink" width="800px" height="800px" viewBox="0 0 545.307 545.307" xml:space="preserve" stroke="#ffffff">

<g id="SVGRepo_bgCarrier" stroke-width="0"/>

<g id="SVGRepo_tracerCarrier" stroke-linecap="round" stroke-linejoin="round"/>

<g id="SVGRepo_iconCarrier"> <g> <g id="Capa_1_2_"> <g> <path d="M341.223,173.641c0.381,0.75,0.66,0.997,0.859,2.192h12.973c7.461,0,13.873-2.682,19.119-6.878 c5.127,4.196,11.654,6.878,19.117,6.878h15.504c13.639,0,21.916,5.977,25.764,13.148h-0.697 c-16.205,0-23.781,9.953-23.781,18.579c0,7.112,4.779,13.254,13.754,13.254c12.008,0,18.885-10.159,18.885-21.469 c0-1.281-0.115-2.572-0.232-3.856c18.305,4.546,27.162,24.128,35.906,43.597c5.596,12.356,11.074,24.596,18.887,33.572 c-7.812,9.093-13.289,21.33-18.887,33.572c-8.744,19.468-17.604,39.052-35.906,43.598c0.117-1.282,0.232-2.563,0.232-3.846 c0-11.309-6.877-21.451-18.885-21.451c-8.977,0-13.754,6.106-13.754,13.216c0,8.628,7.576,18.579,23.781,18.579h0.697 c-3.848,7.172-12.125,13.148-25.764,13.148h-15.504c-7.463,0-13.99,2.68-19.117,6.878c-5.246-4.198-11.66-6.878-19.119-6.878 h-26.041c0.141-1.195,0.223-1.365,0.223-2.092c0-4.049-2.242-7.557-5.551-9.393c-1.539-0.848-3.305-1.328-5.188-1.328 c-3.322,0-6.299,1.518-8.264,3.892c-1.975-2.374-4.947-3.886-8.273-3.886c-1.879,0-3.641,0.488-5.182,1.337 c-3.311,1.833-5.553,5.357-5.553,9.406c0,1.158,0.188,2.271,0.531,3.312c1.842,8.283,18.477,18.892,18.477,18.892 s11.391-6.991,16.359-14.163h28.463c5.713,0,10.84,1.819,15.037,4.967c-6.877,7.461-10.725,17.403-10.725,25.8 c0,9.44,4.547,16.86,14.805,16.86s14.803-7.481,14.803-16.922c0-8.396-3.846-18.267-10.723-25.728 c4.197-3.147,9.207-4.978,15.037-4.978h15.506c18.068,0,28.328-9.14,32.174-19.398c22.383-3.847,32.875-26.194,42.551-47.411 c5.131-11.308,10.609-23.006,17.953-31.633c6.877,6.178,15.389,10.005,26.58,10.005c11.424,0,17.252-6.888,17.252-14.117 c0-7.229-5.828-14.578-17.252-14.578c-11.191,0-19.703,3.847-26.58,10.025c-7.346-8.509-12.707-20.169-17.953-31.593 c-9.561-21.218-20.166-43.648-42.551-47.494c-3.846-10.26-14.104-19.399-32.174-19.399h-15.506c-5.83,0-10.84-1.817-15.037-4.964 c6.877-7.461,10.723-17.406,10.723-25.8c0-9.443-4.545-16.863-14.803-16.863s-14.805,7.481-14.805,16.924 c0,8.393,3.848,18.267,10.725,25.728c-4.197,3.147-9.324,4.975-15.037,4.975h-15.818c0.115,0,0.23,0.562,0.35,0.753 C340.1,171.445,340.682,172.568,341.223,173.641z"/> <path d="M17.252,286.992c11.192,0,19.703-3.847,26.58-10.025c7.345,8.626,12.824,20.283,17.953,31.592 c9.676,21.215,20.167,43.646,42.551,47.491c3.847,10.261,14.106,19.4,32.175,19.4h15.506c5.829,0,10.84,1.819,15.038,4.967 c-6.878,7.461-10.725,17.403-10.725,25.8c0,9.44,4.546,16.86,14.804,16.86c10.259,0,14.805-7.481,14.805-16.922 c0-8.396-3.847-18.267-10.725-25.728c4.198-3.147,9.325-4.978,15.039-4.978h27.592c4.97,7.172,16.368,14.162,16.368,14.162 s16.625-10.527,18.471-18.811c0.342-1.04,0.532-2.194,0.532-3.352c0-4.049-2.242-7.612-5.552-9.447 c-1.539-0.847-3.304-1.335-5.187-1.335c-3.323,0-6.299,1.515-8.263,3.889c-1.975-2.374-4.947-3.889-8.274-3.889 c-1.879,0-3.641,0.488-5.183,1.335c-3.31,1.834-5.552,5.329-5.552,9.379c0,0.728,0.083,0.896,0.222,2.092h-25.176 c-7.461,0-13.874,2.68-19.119,6.878c-5.127-4.198-11.656-6.878-19.116-6.878h-15.506c-13.639,0-21.915-5.977-25.761-13.148h0.697 c16.205,0,23.782-9.951,23.782-18.579c0-7.109-4.779-13.253-13.755-13.253c-12.007,0-18.885,10.161-18.885,21.469 c0,1.282,0.116,2.572,0.232,3.856c-18.304-4.546-27.161-24.127-35.905-43.595c-5.597-12.242-11.076-24.479-18.887-33.571 c7.812-8.977,13.291-21.217,18.887-33.573c8.744-19.468,17.601-39.055,35.905-43.601c-0.116,1.283-0.232,2.566-0.232,3.847 c0,11.31,6.878,21.451,18.885,21.451c8.977,0,13.755-6.104,13.755-13.217c0-8.625-7.577-18.579-23.782-18.579h-0.697 c3.846-7.172,12.123-13.148,25.761-13.148h15.506c7.461,0,13.99-2.682,19.116-6.878c5.247,4.196,11.658,6.878,19.119,6.878 h25.181c1.174-1.195,3.029-2.982,4.224-3.917v-2.06h-29.405c-5.713,0-10.84-1.817-15.038-4.964 c6.878-7.461,10.724-17.406,10.724-25.8c0-9.443-4.545-16.863-14.805-16.863c-10.257,0-14.804,7.481-14.804,16.924 c0,8.393,3.847,18.267,10.724,25.728c-4.198,3.147-9.208,4.975-15.038,4.975h-15.504c-18.068,0-28.328,9.139-32.174,19.399 c-22.382,3.846-32.99,26.194-42.551,47.413c-5.246,11.423-10.608,23.122-17.952,31.631c-6.878-6.177-15.39-10.007-26.58-10.007 C5.83,258.293,0,265.647,0,272.877C0,280.104,5.829,286.992,17.252,286.992z"/> <path d="M273.197,174.749c0.025-0.017,0.05-0.034,0.074-0.05c0.545-0.384,0.969-1.014,1.431-1.489 c1.751-1.804,3.706-3.566,5.878-4.851c1.912-1.133,4.236-1.675,6.312-2.526c4.467-1.833,8.861-4.263,11.846-8.165 c2.141-2.802,3.41-6.174,4.348-9.575c0.484-1.761,0.891-3.622,0.467-5.398c-0.32-1.339-2.623-3.991-4.465-3.991 c-0.457,0-0.885,0.163-1.248,0.55c-1.172,1.249,0.404,4.083,0.396,5.531c-0.014,2.859-0.938,5.701-2.416,8.133 c-2.336,3.85-5.906,6.784-9.57,9.402c-2.758,1.972-5.617,3.811-8.25,5.953c-2.275,1.853-5.229,3.889-5.854,6.963 C272.182,175.069,273.041,174.851,273.197,174.749z"/> <path d="M294.625,138.41c-0.006-0.003-0.008-0.006-0.014-0.007c-0.355-0.028-0.711-0.037-1.068-0.037 c-0.414,0-0.83,0.011-1.248,0.011c-0.32,0-0.641-0.006-0.963-0.028c-1.299-0.087-2.588-0.287-3.891-0.329 c-0.191-0.006-0.385-0.01-0.58-0.01c-3.518,0-7.668,1.002-10.523,3.012c-0.82,0.579-1.525,1.375-1.806,2.34 c-0.363,1.255,0.058,2.659,0.909,3.651c1.49,1.734,3.938,2.227,6.193,2.227c0.455,0,0.904-0.02,1.334-0.054 c0.777-0.061,1.607-0.222,2.145-0.785c0.607-0.636,0.664-1.696,0.201-2.444c-0.445-0.721-1.303-1.138-2.152-1.138 c-0.031,0-0.064,0-0.096,0.001c-1.438,0.054-2.23,1.079-3.061,2.093c-0.164-0.494-0.051-1.048,0.207-1.5 c0.26-0.451,0.65-0.811,1.064-1.125c1.096-0.828,2.389-1.386,3.744-1.613c0.311-0.052,0.627-0.084,0.947-0.084 c0.639,0,1.26,0.131,1.777,0.495c0.582,0.408,0.939,1.098,0.971,1.808c0.039,0.887-0.623,1.782-1.057,2.502 c-0.004,0.006-0.078,0.024-0.078,0.026c-0.039,0.361,0.039,0.51,0.361,0.51c0.045,0-0.154,0.058-0.154,0.053v0.118 c0,0,0.604,0.233,0.611,0.233h0.002c0.002,0,0.582-0.24,0.582-0.24v-0.237c1.195-0.473,2.914-1.12,4.51-1.696 c1.057-0.382,3.357-0.728,2.432-2.466c-0.174-0.329-0.432-0.606-0.646-0.91c-0.443-0.627-0.693-1.384-0.738-2.15 c-0.016-0.253,0.104-0.696,0.184-1.126C294.812,139.046,294.854,138.591,294.625,138.41z"/> <path d="M240.666,157.315c0.16,0.095,0.342,0.184,0.526,0.216c1.593,0.291,3.201,0.516,4.785,0.858 c1.432,0.312,2.846,0.721,4.251,1.138c0.982,0.294,1.938,0.678,3.034,1.066c-0.012-0.405,0.016-0.591-0.027-0.758 c-1.144-4.433-2.606-8.816-3.232-13.366c-0.166-1.205-0.257-2.505,0.337-3.567c0.688-1.231,2.166-1.826,3.591-1.826 c0.136,0,0.272,0.006,0.407,0.017c1.494,0.121,2.707,1.255,4.165,1.332c0.05,0.002,0.101,0.003,0.151,0.003 c1.417,0,2.786-1.034,3.576-2.131c1.1-1.527,1.599-3.403,2.541-5.032c1.215-2.1,3.219-3.691,5.484-4.53 c1.09-0.404,2.013-0.548,2.89-0.548c1.443,0,2.766,0.392,4.516,0.673c0.322,0.051,0.65,0.08,0.979,0.08 c0.795,0,1.588-0.167,2.266-0.573c4.082-2.438-0.719-4.833-2.84-5.835c-2.174-1.026-4.583-1.5-6.993-1.5 c-1.542,0-3.084,0.194-4.565,0.56c-5.084,1.257-9.54,4.344-13.411,7.872c-3.872,3.53-7.272,7.542-11.078,11.143 c-1.424,1.347-2.924,2.659-3.958,4.324C235.893,150.418,237.15,155.195,240.666,157.315z"/> <path d="M243.694,165.606c2.904,0.905,5.768,1.971,8.474,3.367c1.363,0.704,2.684,1.491,3.935,2.377 c1.225,0.869,2.1,1.946,3.141,3.018c0.196,0.202,0.613,0.428,0.267,0.637c-0.007,0.005-0.019,0.007-0.032,0.007 c-0.312,0-2.116-1.162-2.382-1.298c-0.846-0.433-1.701-0.849-2.564-1.249c-1.725-0.8-3.48-1.534-5.263-2.198 c-3.433-1.283-6.927-2.198-10.483-3.032c-0.641-0.151-1.998-0.224-2.502-0.697c0.016,0.178,0.013,0.281,0.036,0.36 c0.004,0.012,0.009,0.024,0.014,0.037c1.365,3.377,3.463,6.494,5.475,9.501c1.969,2.944,4.099,5.779,6.377,8.49 c2.325,2.768,4.802,5.404,7.418,7.896c1.322,1.259,2.679,2.48,4.069,3.662c1.327,1.129,2.706,2.04,4.097,3.056 c2.894,2.114,6.1,3.675,9.473,4.872c2.03,0.722,4.371,1.084,6.792,1.084c6.387,0,13.33-2.523,16.588-7.61 c0.996-1.554,2.26-6.215,0.371-7.761c-0.229-0.187-0.502-0.328-0.826-0.413c-15.012-3.928-26.462-13.019-38.386-22.562 c-1.439-1-2.915-1.946-4.439-2.821c-3.23-1.854-6.699-3.338-10.342-4.146c-1.967-0.438-3.971-0.723-5.972-0.723 c-1.518,0-3.035,0.165-4.534,0.552c-1.253,0.324-2.059,0.666-2.946,1.576c2.16,0.958,4.71,1.397,6.994,2.008 C238.938,164.235,241.332,164.868,243.694,165.606z M229.975,161.716c-0.016-0.011-0.029-0.019-0.045-0.03 c0.086,0.025,0.177,0.041,0.264,0.048C230.122,161.727,230.047,161.721,229.975,161.716z"/> <path d="M274.831,177.671c3.718,2.349,7.565,4.48,11.431,6.595c1.277,0.698,2.707,1.271,4.143,1.502 c0.441,0.07,0.883,0.108,1.32,0.108c0.932,0,1.846-0.174,2.703-0.584c1.75-0.838,2.945-2.52,3.826-4.25 c1.402-2.751,2.186-5.808,2.328-8.891c0.102-2.203,0.232-7.012-1.557-8.677c-0.254-0.237-0.459-0.332-0.652-0.332 c-0.406,0-0.758,0.421-1.391,0.815c-3.484,2.171-7.494,3.276-11.316,4.682C284.07,169.23,271.503,175.581,274.831,177.671z"/> <path d="M264.515,142.937c-0.466,0.481-1.04,1.079-1.725,1.788c3.611,1.251,6.787,2.975,10.662,3.878 c-0.339-1.062-0.527-1.779-0.793-2.468c-0.792-2.059-0.937-4.059,0.732-5.749c0.752-0.76,1.641-1.47,2.6-1.914 c1.971-0.907,4.031-1.621,6.195-2.468c-0.375-0.227-0.701-0.458-1.051-0.636c-2.047-1.04-4.299-0.955-6.496-1.116 c-0.272-0.019-0.545-0.03-0.814-0.03c-2.331,0-4.498,0.754-6.011,2.546c-1.919,2.275-2.606,2.909-0.344,5.319 c0.802,0.849,1.739,1.573,2.612,2.355c-0.029,0.06-0.06,0.12-0.091,0.178C268.192,144.066,266.396,143.512,264.515,142.937z"/> <path d="M222.783,183.771c0.002,0.003,0.006,0.003,0.008,0.006c0.2,0.17,0.407,0.322,0.625,0.455 c1.254,0.767,2.515,1.532,3.783,2.277c0.006,0.003,0.008,0.003,0.011,0.007c0.097,0.045,0.192,0.096,0.289,0.141 c2.267,1.102,4.523,2.242,6.686,3.531c0.025,0.014,0.05,0.027,0.075,0.042c2.417,1.356,4.878,2.655,6.653,4.909 c0.177,0.223,0.347,0.444,0.523,0.668c0.002,0.004-0.002,0.01,0.002,0.013c2.796,2.93,5.043,6.316,7.602,9.506 c2.176,2.708,4.948,3.914,8.105,3.914c0.643,0,1.15-0.05,1.816-0.147c3.343-0.488,6.115-1.503,9.701-2.283 c0-0.106,0-0.209,0-0.315c-2.391-1.161-4.45-2.201-6.652-3.519c-5.681-3.402-10.642-7.523-15.031-12.495 c-1.974-2.235-3.783-4.614-5.406-7.113c-1.644-2.529-2.932-5.225-4.413-7.844c-0.352-0.623-0.712-1.359-1.521-1.359 c-0.119,0-0.245,0.015-0.384,0.05c-3.145,0.767-6.271,1.59-9.094,3.246c-1.56,0.913-3.112,1.795-4.089,3.422 c-0.004,0.002-0.004,0.006-0.004,0.009c-0.208,0.535-0.263,1.115-0.092,1.66C222.128,183.019,222.431,183.421,222.783,183.771z"/> <path d="M286.824,133.552c1.459,0.167,3.312,0.229,4.414,0.229c0.463,0,0.795-0.011,0.908-0.029 c2.641-0.421,4.926-1.762,7.639-1.974c0.455-0.036,0.91-0.054,1.365-0.054c2.695,0,5.342,0.649,7.588,2.238 c2.322,1.644,4.592,3.369,6.873,5.072c0.223,0.165,0.361,0.436,0.758,0.931c-1.082-0.287-1.873-0.392-2.576-0.706 c-2.141-0.959-4.189-2.162-6.395-2.944c-1.359-0.48-2.875-0.318-4.291-0.408c0.084,0.729,0.488,1.042,0.951,1.606 c0.537,0.655,1.006,1.366,1.4,2.116c0.787,1.5,1.27,3.163,1.391,4.853c0.125,1.799-0.16,3.625-0.809,5.307 c-0.68,1.766-1.844,3.279-2.697,4.958c-0.65,1.284-1.316,2.568-1.852,3.9c-0.965,2.392-0.293,4.705,0.557,6.973 c0.154,0.414,0.363,0.825,0.559,1.256c0.797-1.807,1.41-3.513,2.514-5.183c1.102-1.667,2.371-3.157,3.59-4.737 c2.008-2.604,3.928-5.313,4.521-8.548c0.229-1.255,0.594-2.461,2.139-2.461c0.021,0,0.043,0,0.064,0 c0.324,1.195,0.887,2.631,0.768,4.107c0.002,0.013,0.273,0.013,0.273,0.007c0,3.458-3.465,5.936-5.436,8.39 c-2.223,2.772-4.312,5.777-5.789,9.015c-0.207,0.453-0.471,0.91-0.658,1.371c-0.775,1.915-1.412,3.896-1.924,5.896 c-0.26,1.022-0.516,2.049-0.74,3.079c-0.191,0.863-0.723,2.154-0.604,3.011c0.289-0.034,0.555-0.576,0.693-0.833 c0.9-1.671,1.688-3.414,2.701-5.015c2.287-3.621,4.602-7.225,6.918-10.826c2.279-3.544,5.127-6.606,7.717-9.915 c2.662-3.4,5.01-7.271,5.418-11.57c0.406-4.298-1.604-9.064-5.586-10.734c-5.453-2.288-11.512-4.074-17.359-4.956 c-1.85-0.278-3.973-0.529-6.094-0.529c-4.791,0-9.559,1.276-11.068,6.385C284.566,133.177,285.543,133.405,286.824,133.552z M316.479,150.009c0,0.013-0.002,0.025-0.002,0.037C316.477,150.018,316.477,149.975,316.479,150.009z"/> <path d="M316.73,163.262c-1.396,0.722-2.328,2.105-3.199,3.414c-1.199,1.798-12.984,20.704-14.455,20.704 c-0.023,0-0.047,0-0.066-0.012c3.596,2.153,3.604,5.396,2.146,8.997c0.291-0.015,0.404,0.001,0.502-0.03 c4.391-1.365,7.822-4.317,11.471-6.919c1.943-1.388,3.906-2.758,5.943-3.996c4.133-2.504,8.629-4.118,13.338-5.163 c1.686-0.373,2.141-1.276,1.354-2.827c-0.281-0.554-0.6-1.597-0.922-1.597c-0.381-1.195-0.771-1.444-1.139-2.08 c-0.799-1.38-1.801-2.701-2.883-3.896c-0.908-1.195-1.869-1.684-2.834-2.584c-1.678-1.564-5.027-4.396-7.773-4.396 C317.693,162.877,317.193,163.021,316.73,163.262z"/> <path d="M323.734,136.156c-0.01-0.036-0.02-0.069-0.029-0.105c-0.545-1.473-1.41-2.78-2.779-3.627 c-0.51-0.314-1.049-0.557-1.604-0.809c-0.135-0.038-0.271-0.074-0.412-0.106c-0.047-0.009-0.094-0.022-0.139-0.032 c0.748,0.267,1.475,0.587,2.15,1.004C322.316,133.342,323.191,134.651,323.734,136.156z"/> <path d="M262.956,164.813c-0.277,0.955-0.46,1.801,0.583,2.632c1.714,1.368,3.276,2.936,4.83,4.495 c0.524,0.525,0.842,0.779,1.161,0.779c0.329,0,0.659-0.268,1.218-0.785c1.731-1.6,3.549-3.121,5.436-4.533 c2.275-1.7,4.729-3.164,6.975-4.9c1.809-1.392,3.447-3.013,5.121-4.573c2.707-2.529,5.027-5.376,6.797-8.643 c0.396-0.731,0.445-1.591,0.586-2.398c-0.113,0.656-3.742,1.84-4.373,2.084c-1.594,0.62-3.234,1.114-4.902,1.488 c-2.557,0.571-5.176,0.854-7.793,0.854c-0.807,0-1.613-0.027-2.418-0.08c-7.141-0.476-12.657-3.171-18.502-6.936 c-0.437-0.281-0.973-0.413-1.514-0.413c-1.018,0-2.05,0.466-2.444,1.27c-0.611,1.249-0.877,2.598-0.544,3.981 c0.446,1.842,0.942,3.666,1.413,5.499c0.608,2.386,1.205,4.776,1.822,7.16c0.054,0.208,0.155,0.461,0.319,0.577 c1.392,0.979,2.802,1.933,4.34,2.986c1.627-5.168-0.315-9.464-2.643-13.734c1.414,1.06,2.715,2.159,3.924,3.354 c1.659,1.644,2.295,3.686,1.811,5.969C263.877,162.259,263.329,163.517,262.956,164.813z M257.624,147.3 c0.724,0.356,1.524,0.612,2.155,1.09c3.353,2.536,6.885,4.66,10.895,6.061c3.258,1.142,6.564,1.563,9.936,1.563 c0.357,0,0.717-0.005,1.076-0.015c1.562-0.039,3.121-0.351,4.902-0.569c-1.01,1.99-2.711,2.825-4.326,3.304 c-1.83,0.545-3.812,1.01-5.715,1.01c-0.391,0-0.781-0.019-1.164-0.062c-3.804-0.423-7.359-1.718-10.112-4.779 C262.899,152.264,260.183,149.933,257.624,147.3z"/> <path d="M285.674,358.003c-1.539-0.847-3.305-1.335-5.186-1.335c-3.324,0-6.301,1.515-8.264,3.889 c-1.975-2.374-4.947-3.889-8.274-3.889c-1.879,0-3.641,0.488-5.183,1.335c-3.31,1.834-5.552,5.356-5.552,9.406 c0,1.158,0.188,2.271,0.531,3.312c1.842,8.283,18.478,18.729,18.478,18.729s16.625-10.445,18.471-18.729 c0.342-1.04,0.531-2.154,0.531-3.312C291.227,363.36,288.984,359.84,285.674,358.003z"/> </g> </g> </g> </g>

</svg>