<?xml version="1.0" standalone="no"?>
<!DOCTYPE svg PUBLIC "-//W3C//DTD SVG 20010904//EN"
 "http://www.w3.org/TR/2001/REC-SVG-20010904/DTD/svg10.dtd">
<svg version="1.0" xmlns="http://www.w3.org/2000/svg"
 width="334.000000pt" height="445.000000pt" viewBox="0 0 334.000000 445.000000"
 preserveAspectRatio="xMidYMid meet">

<g transform="translate(0.000000,445.000000) scale(0.100000,-0.100000)"
fill="#000000" stroke="none">
<path d="M1656 3253 c-4 -5 -87 -16 -123 -17 -17 -1 -29 -4 -26 -8 2 -5 -8 -8
-23 -8 -15 0 -36 -8 -47 -17 -11 -10 -17 -12 -12 -4 6 10 2 10 -16 -2 -13 -8
-36 -17 -51 -21 -16 -4 -28 -11 -28 -16 0 -6 -9 -10 -20 -10 -11 0 -20 -4 -20
-10 0 -5 -7 -10 -15 -10 -9 0 -18 -7 -21 -15 -4 -8 -12 -15 -20 -15 -7 0 -21
-8 -31 -18 -10 -10 -44 -35 -75 -55 -31 -20 -70 -52 -86 -69 -16 -18 -48 -53
-71 -78 -22 -25 -41 -49 -40 -53 0 -5 -11 -19 -25 -32 -14 -13 -26 -29 -26
-35 0 -6 -7 -18 -16 -27 -8 -9 -13 -22 -10 -29 3 -8 0 -11 -11 -7 -12 5 -14 1
-8 -17 5 -15 4 -20 -4 -16 -6 4 -11 0 -11 -9 0 -9 -6 -26 -14 -38 -18 -29 -32
-92 -18 -83 6 4 8 -2 5 -14 -11 -41 16 -18 33 28 10 26 22 53 27 60 5 6 7 12
3 12 -13 0 117 181 162 227 134 133 271 216 447 270 82 24 105 27 255 27 140
1 178 -3 250 -22 360 -95 629 -399 686 -775 19 -123 12 -226 -22 -344 -13 -45
-21 -90 -18 -100 4 -12 3 -14 -3 -5 -7 8 -16 -3 -32 -40 -13 -29 -43 -83 -67
-120 -24 -38 -44 -70 -44 -72 0 -2 7 -7 16 -10 11 -4 15 -2 11 8 -3 7 3 23 13
34 10 11 16 23 12 28 -4 4 -1 4 6 0 10 -6 10 -11 1 -22 -9 -11 -8 -14 5 -14 9
0 16 3 16 8 0 4 21 29 46 56 24 28 42 56 40 63 -3 7 0 18 7 26 20 22 40 60 27
52 -7 -4 -5 3 3 16 8 13 21 44 28 69 7 25 17 51 22 58 5 7 7 15 4 19 -4 3 -2
13 2 22 28 52 29 311 2 384 -5 12 -7 30 -6 40 2 9 -3 17 -11 17 -7 0 -11 6 -8
14 3 8 1 17 -5 20 -6 4 -8 13 -5 21 8 21 -102 244 -136 275 -3 3 -18 23 -34
45 -44 60 -156 165 -176 165 -6 0 -10 5 -10 10 0 6 -5 10 -10 10 -10 0 -22 8
-55 38 -7 6 -18 12 -24 12 -13 0 -84 33 -91 42 -5 6 -81 36 -95 38 -5 0 -9 1
-22 5 -56 15 -94 21 -193 31 -63 6 -190 11 -194 7z m74 -70 c0 -5 -19 -9 -43
-10 -34 -1 -37 0 -17 7 33 11 60 12 60 3z m143 -8 c250 -38 451 -149 596 -330
9 -11 -20 14 -65 56 -90 85 -172 143 -254 181 -78 36 -214 76 -290 84 -107 11
-112 12 -118 18 -9 9 26 7 131 -9z m-253 -2 c-14 -3 -42 -8 -64 -13 -21 -5
-34 -5 -30 0 11 10 48 17 89 17 26 0 26 0 5 -4z m-130 -23 c-8 -5 -24 -9 -35
-9 -16 1 -16 2 5 9 35 11 48 11 30 0z m-90 -30 c-20 -13 -33 -13 -25 0 3 6 14
10 23 10 15 0 15 -2 2 -10z m-40 -14 c0 -2 -9 -6 -20 -9 -11 -3 -18 -1 -14 4
5 9 34 13 34 5z m-60 -26 c-8 -5 -19 -10 -25 -10 -5 0 -3 5 5 10 8 5 20 10 25
10 6 0 3 -5 -5 -10z m1201 -277 c13 -16 12 -17 -3 -4 -10 7 -18 15 -18 17 0 8
8 3 21 -13z m47 -69 c-4 -3 -12 5 -18 18 -12 22 -12 22 6 6 10 -10 15 -20 12
-24z m27 -954 c-3 -5 -12 -10 -18 -10 -7 0 -6 4 3 10 19 12 23 12 15 0z"/>
<path d="M1596 3068 c-293 -36 -557 -235 -671 -508 -19 -43 -37 -96 -40 -117
-4 -28 3 -17 27 42 67 163 144 273 253 365 173 144 421 218 641 190 219 -27
373 -105 516 -259 95 -102 158 -232 198 -407 12 -56 12 -247 0 -297 -48 -191
-71 -247 -146 -354 -50 -70 -57 -89 -16 -41 40 46 65 84 102 152 75 140 105
273 97 441 -5 122 -24 202 -76 319 -56 127 -183 273 -309 354 -150 97 -379
145 -576 120z"/>
<path d="M1005 2780 c-10 -11 -16 -22 -14 -24 2 -2 12 7 22 20 22 29 17 32 -8
4z"/>
<path d="M927 2670 c-15 -26 -27 -52 -27 -56 0 -5 14 15 31 44 17 30 29 55 27
57 -2 2 -16 -18 -31 -45z"/>
<path d="M880 2589 c0 -5 -11 -34 -25 -64 -71 -149 -84 -394 -31 -565 33 -108
67 -178 125 -260 99 -142 210 -237 362 -310 137 -65 221 -83 384 -84 150 0
231 15 363 69 209 85 412 277 498 471 14 31 23 58 21 60 -2 2 -12 -15 -23 -38
-10 -24 -25 -48 -34 -55 -8 -7 -11 -13 -6 -13 5 0 0 -8 -10 -18 -11 -9 -30
-31 -42 -49 -70 -100 -220 -234 -322 -288 -30 -15 -57 -31 -60 -34 -3 -3 -14
-7 -25 -8 -11 -1 -38 -10 -60 -19 -22 -10 -43 -17 -47 -16 -5 1 -8 -2 -8 -8 0
-5 -6 -7 -14 -4 -8 3 -41 0 -75 -6 -110 -20 -246 -14 -360 14 -56 14 -120 35
-142 46 -22 12 -45 18 -52 14 -7 -4 -9 -4 -5 0 4 5 -28 31 -70 59 -79 52 -218
186 -243 234 -8 16 -17 30 -20 33 -8 6 -79 143 -97 188 -13 29 -19 53 -21 75
-1 5 -6 5 -13 1 -7 -5 -9 -2 -6 7 3 9 0 37 -7 65 -13 49 -13 207 0 274 7 41
23 96 35 125 15 38 43 100 47 108 2 4 -1 7 -6 7 -6 0 -11 -5 -11 -11z"/>
<path d="M399 2547 c-3 -13 -6 -22 -18 -52 -20 -47 -15 -152 8 -207 12 -25 48
-76 81 -112 32 -36 67 -80 76 -98 25 -49 21 -138 -10 -231 -14 -43 -26 -97
-26 -120 0 -64 36 -126 95 -165 115 -75 128 -91 180 -235 45 -126 149 -182
359 -192 158 -8 238 -22 341 -61 167 -63 265 -65 423 -9 81 28 150 42 257 51
109 8 211 44 308 108 45 29 128 76 184 105 148 76 231 174 269 316 18 65 17
74 -1 48 -8 -12 -12 -28 -9 -37 3 -9 1 -16 -5 -16 -6 0 -11 -7 -11 -15 0 -8
-4 -15 -9 -15 -5 0 -12 -9 -16 -20 -3 -11 -11 -19 -18 -17 -6 1 -13 -8 -15
-21 -2 -13 -11 -31 -21 -41 -9 -9 -24 -26 -32 -37 -24 -33 -78 -66 -115 -69
-18 -2 -34 1 -34 6 0 6 -5 7 -10 4 -6 -4 -8 -9 -6 -13 2 -4 -2 -13 -10 -20
-11 -10 -14 -10 -14 0 0 7 -10 -2 -22 -20 -11 -19 -24 -30 -27 -25 -3 4 -12 9
-20 11 -12 3 -12 0 -2 -11 10 -12 6 -19 -19 -37 -26 -19 -33 -20 -47 -8 -10 7
-14 8 -10 1 9 -14 -2 -45 -14 -37 -5 3 -9 0 -9 -5 0 -13 -69 -43 -84 -37 -7 3
-6 5 2 5 6 1 12 8 12 17 0 9 5 12 11 8 7 -4 10 -1 7 6 -2 8 -10 16 -18 18 -7
3 -10 0 -6 -6 3 -6 -3 -13 -14 -17 -12 -4 -17 -11 -13 -18 4 -7 -1 -6 -10 2
-11 8 -17 9 -17 3 0 -7 -7 -9 -17 -5 -10 4 -14 2 -10 -4 3 -5 0 -10 -8 -10 -8
0 -15 5 -15 10 0 6 -8 3 -18 -5 -9 -9 -27 -14 -39 -12 -13 2 -23 0 -23 -4 0
-4 -24 -8 -54 -9 -30 -1 -69 -8 -87 -16 -36 -16 -98 -32 -112 -29 -5 1 -27 -3
-50 -9 -23 -6 -69 -13 -102 -15 -33 -1 -68 -6 -78 -9 -10 -4 -17 -2 -17 5 0 6
-4 9 -9 5 -5 -3 -12 -1 -16 4 -3 6 -18 10 -33 9 -41 -1 -106 14 -114 26 -5 7
-8 6 -8 -4 0 -11 -2 -12 -8 -2 -5 7 -19 15 -33 17 -67 13 -165 41 -170 49 -4
5 -14 6 -23 3 -9 -4 -16 -2 -16 4 0 6 -5 7 -10 4 -6 -4 -17 -1 -25 5 -10 8
-15 9 -15 2 0 -14 -28 -5 -54 17 -10 9 -21 15 -25 15 -13 -3 -51 16 -51 26 0
6 -14 9 -32 8 -18 -1 -33 3 -36 10 -2 6 -10 12 -18 12 -8 0 -14 5 -14 11 0 6
-7 8 -16 5 -13 -5 -15 -1 -10 17 6 25 -20 57 -41 50 -6 -2 -14 5 -18 16 -3 12
-11 21 -17 21 -5 0 -8 7 -5 15 4 8 1 17 -5 21 -7 5 -8 2 -3 -7 4 -8 -1 -5 -12
6 -11 11 -19 23 -16 28 2 4 1 7 -4 7 -4 0 -15 15 -22 33 -8 17 -23 39 -33 48
-10 9 -18 21 -18 26 0 5 -11 19 -25 31 -14 12 -25 26 -25 32 0 5 -5 9 -12 7
-7 -1 -13 4 -14 11 -3 26 -5 26 -19 8 -8 -11 -18 -17 -21 -13 -4 3 1 14 11 23
12 13 13 19 4 24 -6 4 -9 13 -5 19 5 7 1 9 -8 5 -11 -4 -16 0 -16 11 0 9 5 13
10 10 6 -3 10 1 10 9 0 20 -5 20 -24 0 -9 -8 -16 -11 -16 -5 0 5 5 13 11 17 8
5 7 9 -1 14 -19 12 -4 40 22 41 17 0 19 2 8 7 -16 8 -24 72 -9 72 5 0 7 10 4
23 -3 12 -7 38 -10 57 -10 79 -30 143 -50 160 -8 7 -12 16 -9 21 3 5 -3 9 -13
10 -10 0 -13 3 -5 6 6 2 12 9 12 14 0 6 -4 8 -9 5 -5 -3 -14 1 -21 9 -7 8 -17
12 -23 8 -6 -3 -7 -1 -3 6 9 14 -2 51 -15 51 -6 0 -7 -4 -4 -10 3 -5 1 -10 -4
-10 -14 0 -14 17 -1 25 6 3 10 11 10 17 0 7 -6 6 -15 -2 -10 -9 -15 -9 -15 -1
0 6 -7 11 -16 11 -13 0 -14 3 -5 14 9 11 9 15 -1 19 -8 4 -7 6 4 6 14 1 16 6
8 25 -5 13 -6 27 -3 30 4 3 -2 15 -12 26 -15 16 -16 22 -5 35 11 13 10 19 -3
33 -10 9 -18 13 -18 9z m191 -783 c0 -8 -19 -13 -24 -6 -3 5 1 9 9 9 8 0 15
-2 15 -3z m85 -94 c3 -5 1 -10 -4 -10 -6 0 -11 5 -11 10 0 6 2 10 4 10 3 0 8
-4 11 -10z"/>
<path d="M2240 2511 c0 -6 4 -13 10 -16 6 -3 7 1 4 9 -7 18 -14 21 -14 7z"/>
<path d="M766 2495 c-3 -8 -1 -15 4 -15 6 0 10 7 10 15 0 8 -2 15 -4 15 -2 0
-6 -7 -10 -15z"/>
<path d="M790 2476 c0 -9 -4 -14 -10 -11 -5 3 -10 0 -10 -7 0 -9 -3 -9 -10 2
-8 12 -10 10 -9 -10 0 -14 -1 -34 -4 -45 -2 -11 -2 -14 0 -7 3 6 9 12 15 12 6
0 7 -8 3 -17 -9 -22 -20 -250 -12 -243 3 3 7 39 8 79 1 41 10 115 20 165 10
49 16 92 14 95 -3 2 -5 -3 -5 -13z"/>
<path d="M471 2374 c0 -11 3 -14 6 -6 3 7 2 16 -1 19 -3 4 -6 -2 -5 -13z"/>
<path d="M872 2370 c0 -14 2 -19 5 -12 2 6 2 18 0 25 -3 6 -5 1 -5 -13z"/>
<path d="M513 2285 c0 -8 4 -12 9 -9 5 3 6 10 3 15 -9 13 -12 11 -12 -6z"/>
<path d="M1145 2225 c0 -60 3 -75 15 -75 12 0 14 13 12 70 -4 69 -3 70 21 70
14 0 28 -6 30 -12 3 -8 6 -6 6 5 1 14 -7 17 -41 17 l-43 0 0 -75z"/>
<path d="M1310 2254 c-12 -27 -27 -61 -35 -76 -11 -24 -11 -28 1 -28 8 0 14
10 14 23 0 13 3 27 8 31 4 4 12 22 18 39 l12 32 28 -62 c16 -34 35 -62 42 -63
8 0 -1 27 -24 73 -20 39 -38 74 -40 76 -2 2 -13 -18 -24 -45z"/>
<path d="M1530 2287 c27 -15 36 -14 25 2 -3 6 -16 11 -28 11 -21 0 -21 -1 3
-13z"/>
<path d="M1598 2225 c2 -49 8 -75 15 -75 8 0 12 24 12 75 0 60 -3 75 -15 75
-12 0 -14 -13 -12 -75z"/>
<path d="M1725 2225 c0 -43 4 -75 10 -75 6 0 10 32 10 75 0 43 -4 75 -10 75
-6 0 -10 -32 -10 -75z"/>
<path d="M1798 2225 c3 -51 8 -75 16 -75 8 0 11 12 8 34 -4 33 -2 35 29 39
l34 4 -34 1 c-32 2 -33 3 -29 37 3 27 0 35 -12 35 -12 0 -14 -12 -12 -75z"/>
<path d="M1908 2265 c3 -25 0 -35 -9 -35 -12 0 -12 -2 0 -9 9 -6 12 -20 9 -40
-3 -21 0 -31 8 -31 7 0 18 -8 23 -17 9 -15 10 -15 11 -2 0 8 -5 20 -12 27 -7
7 -11 38 -10 77 1 47 -2 65 -11 65 -9 0 -12 -11 -9 -35z"/>
<path d="M1980 2246 c3 -30 2 -64 -2 -75 -6 -16 -3 -21 10 -21 15 0 17 11 17
75 0 61 -3 75 -16 75 -12 0 -14 -9 -9 -54z"/>
<path d="M2105 2225 c0 -43 4 -75 10 -75 6 0 10 32 10 75 0 43 -4 75 -10 75
-6 0 -10 -32 -10 -75z"/>
<path d="M2175 2289 c-11 -17 1 -21 15 -4 8 9 8 15 2 15 -6 0 -14 -5 -17 -11z"/>
<path d="M2232 2281 c9 -15 9 -23 -1 -35 -11 -13 -11 -19 -1 -31 7 -8 10 -26
8 -40 -4 -20 -3 -23 8 -14 17 14 18 56 3 61 -9 3 -9 10 0 27 10 17 10 26 0 37
-17 21 -31 17 -17 -5z"/>
<path d="M1447 2272 c-25 -28 -21 -74 8 -102 14 -13 27 -21 30 -18 3 2 -4 13
-15 23 -23 20 -28 83 -8 103 7 7 10 12 7 12 -3 0 -13 -8 -22 -18z"/>
<path d="M2313 2245 c0 -27 2 -38 4 -22 2 15 2 37 0 50 -2 12 -4 0 -4 -28z"/>
<path d="M1203 2226 c9 -7 17 -25 17 -39 0 -16 -7 -27 -17 -30 -15 -4 -15 -5
-2 -6 44 -3 51 66 9 80 -22 8 -23 8 -7 -5z"/>
<path d="M1668 2219 c16 -18 15 -34 -4 -53 -8 -9 -11 -16 -6 -16 31 0 42 69
12 78 -12 4 -13 2 -2 -9z"/>
<path d="M2048 2219 c17 -19 15 -46 -5 -58 -10 -6 -13 -11 -7 -11 33 -1 45 69
14 78 -12 4 -13 2 -2 -9z"/>
<path d="M1061 2164 c-2 -51 36 -181 76 -256 69 -131 214 -251 363 -300 89
-29 263 -36 348 -14 125 32 269 119 343 208 40 48 104 160 113 198 3 14 -3 5
-15 -20 -82 -180 -246 -318 -434 -365 -80 -20 -211 -22 -275 -5 -25 7 -52 14
-61 15 -10 2 -31 11 -48 20 -18 9 -36 13 -41 10 -5 -3 -12 -1 -15 5 -4 6 -27
20 -52 32 -24 12 -47 27 -50 35 -3 7 -9 13 -15 13 -5 0 -34 26 -64 57 -85 89
-145 222 -167 373 -4 21 -4 20 -6 -6z"/>
<path d="M1540 2165 c-8 -9 -8 -15 -2 -15 12 0 26 19 19 26 -2 2 -10 -2 -17
-11z"/>
<path d="M2170 2171 c0 -10 19 -25 25 -20 1 2 -3 10 -11 17 -8 7 -14 8 -14 3z"/>
<path d="M2641 2164 c0 -11 3 -14 6 -6 3 7 2 16 -1 19 -3 4 -6 -2 -5 -13z"/>
<path d="M2296 2114 c-4 -20 -5 -38 -3 -40 3 -3 8 11 11 32 4 20 5 38 3 40 -3
3 -8 -11 -11 -32z"/>
<path d="M761 2114 c0 -11 3 -14 6 -6 3 7 2 16 -1 19 -3 4 -6 -2 -5 -13z"/>
<path d="M2917 2113 c-4 -3 -7 -11 -7 -17 0 -6 5 -5 12 2 6 6 9 14 7 17 -3 3
-9 2 -12 -2z"/>
<path d="M2631 2088 c0 -16 -4 -28 -8 -28 -5 0 -9 -12 -9 -28 -1 -26 -1 -26
13 7 8 18 12 43 10 55 -3 16 -5 15 -6 -6z"/>
<path d="M2912 2060 c0 -14 2 -19 5 -12 2 6 2 18 0 25 -3 6 -5 1 -5 -13z"/>
<path d="M2267 2011 c-4 -17 -3 -21 5 -13 5 5 8 16 6 23 -3 8 -7 3 -11 -10z"/>
<path d="M2601 1984 c0 -11 3 -14 6 -6 3 7 2 16 -1 19 -3 4 -6 -2 -5 -13z"/>
<path d="M2231 1933 c-10 -26 -10 -27 4 -9 8 11 15 23 15 28 0 15 -7 8 -19
-19z"/>
<path d="M2199 1883 c-13 -16 -12 -17 4 -4 9 7 17 15 17 17 0 8 -8 3 -21 -13z"/>
<path d="M2169 1843 c-13 -16 -12 -17 4 -4 9 7 17 15 17 17 0 8 -8 3 -21 -13z"/>
<path d="M1040 1809 c0 -18 3 -29 7 -26 3 4 17 0 31 -9 19 -13 27 -13 36 -3 8
9 8 10 -1 5 -7 -4 -13 -3 -13 3 0 5 -9 13 -20 16 -11 4 -18 9 -16 13 2 4 -2
13 -10 20 -12 11 -14 8 -14 -19z"/>
<path d="M1160 1691 c0 -7 -6 -9 -12 -6 -7 3 -3 -2 10 -11 12 -9 22 -23 22
-30 0 -22 16 -16 35 14 10 15 12 21 4 15 -10 -10 -17 -9 -36 9 -13 12 -23 16
-23 9z"/>
<path d="M2187 1678 c13 -6 25 -19 28 -29 8 -25 22 -24 30 1 3 11 14 20 23 20
15 0 15 2 2 10 -11 7 -18 4 -25 -10 -10 -19 -11 -19 -23 0 -7 11 -22 20 -35
19 l-22 0 22 -11z"/>
<path d="M2395 1588 c-77 -77 -165 -143 -259 -195 -33 -19 -50 -31 -36 -28 50
14 218 127 295 200 55 53 81 71 87 62 5 -8 8 -8 8 -1 0 6 -6 16 -13 22 -10 8
-30 -6 -82 -60z"/>
<path d="M2060 1633 c0 -13 5 -23 10 -23 13 0 13 11 0 30 -8 12 -10 11 -10 -7z"/>
<path d="M2030 1591 c0 -5 7 -11 15 -15 8 -3 15 -15 15 -26 0 -24 22 -26 40
-5 7 8 21 15 32 15 10 0 16 5 13 10 -9 14 -45 13 -45 -2 0 -7 -6 -6 -17 4 -23
19 -53 30 -53 19z"/>
<path d="M1335 1543 c2 -31 7 -38 23 -38 12 0 24 -4 28 -8 14 -14 34 -7 34 13
0 11 5 20 10 20 6 0 10 6 10 13 -1 6 -8 3 -18 -9 -19 -22 -18 -22 -65 24 l-24
23 2 -38z"/>
<path d="M1907 1563 c-4 -3 -7 -11 -7 -17 0 -6 5 -5 12 2 6 6 9 14 7 17 -3 3
-9 2 -12 -2z"/>
<path d="M1860 1520 c0 -5 7 -13 17 -18 9 -6 14 -16 10 -25 -8 -22 10 -32 30
-15 9 7 28 11 42 10 l26 -3 -23 16 c-13 9 -29 14 -37 11 -8 -3 -15 -2 -15 3 0
4 -11 13 -25 19 -14 7 -25 7 -25 2z"/>
<path d="M1497 1505 c6 -10 8 -26 6 -36 -4 -15 0 -19 24 -19 16 0 34 -5 40
-11 7 -7 13 -7 17 -1 5 9 -42 53 -83 77 -11 6 -11 4 -4 -10z"/>
<path d="M1590 1490 c-8 -5 -12 -12 -9 -15 4 -3 12 1 19 10 14 17 11 19 -10 5z"/>
<path d="M1660 1496 c0 -4 4 -14 9 -24 5 -9 12 -25 15 -35 5 -15 9 -16 26 -7
14 8 26 8 40 0 11 -6 20 -7 20 -3 -1 15 -30 47 -36 40 -4 -4 -22 3 -41 14 -18
11 -33 18 -33 15z"/>
<path d="M1770 1480 c-9 -6 -10 -10 -3 -10 6 0 15 5 18 10 8 12 4 12 -15 0z"/>
<path d="M2045 1350 c-16 -7 -17 -9 -3 -9 9 -1 20 4 23 9 7 11 7 11 -20 0z"/>
<path d="M1990 1330 c-9 -6 -10 -10 -3 -10 6 0 15 5 18 10 8 12 4 12 -15 0z"/>
</g>
</svg>
