<?xml version="1.0" standalone="no"?>
<!DOCTYPE svg PUBLIC "-//W3C//DTD SVG 20010904//EN"
 "http://www.w3.org/TR/2001/REC-SVG-20010904/DTD/svg10.dtd">
<svg version="1.0" xmlns="http://www.w3.org/2000/svg"
 width="334.000000pt" height="445.000000pt" viewBox="0 0 334.000000 445.000000"
 preserveAspectRatio="xMidYMid meet">

<g transform="translate(0.000000,445.000000) scale(0.100000,-0.100000)"
fill="#000000" stroke="none">
<path d="M1656 3253 c-4 -5 -87 -16 -123 -17 -17 -1 -29 -4 -26 -8 2 -5 -8 -8
-23 -8 -15 0 -36 -8 -47 -17 -11 -10 -17 -12 -12 -4 6 10 2 10 -16 -2 -13 -8
-36 -17 -51 -21 -16 -4 -28 -11 -28 -16 0 -6 -9 -10 -20 -10 -11 0 -20 -4 -20
-10 0 -5 -7 -10 -15 -10 -9 0 -18 -7 -21 -15 -4 -8 -12 -15 -20 -15 -7 0 -21
-8 -31 -18 -10 -10 -44 -35 -75 -55 -31 -20 -70 -52 -86 -69 -16 -18 -48 -53
-71 -78 -22 -25 -41 -49 -40 -53 0 -5 -11 -19 -25 -32 -14 -13 -26 -29 -26
-35 0 -6 -7 -18 -16 -27 -8 -9 -13 -22 -10 -29 3 -8 0 -11 -11 -7 -12 5 -14 1
-8 -17 5 -15 4 -20 -4 -16 -6 4 -11 0 -11 -9 0 -9 -6 -26 -14 -38 -18 -29 -32
-92 -18 -83 6 4 8 -2 5 -14 -11 -41 16 -18 33 28 10 26 22 53 27 60 5 6 7 12
3 12 -13 0 117 181 162 227 134 133 271 216 447 270 82 24 105 27 255 27 140
1 178 -3 250 -22 360 -95 629 -399 686 -775 19 -123 12 -226 -22 -344 -13 -45
-21 -90 -18 -100 4 -12 3 -14 -3 -5 -7 8 -16 -3 -32 -39 -41 -94 -120 -206
-204 -286 -92 -88 -149 -130 -252 -185 -38 -21 -66 -38 -61 -38 15 0 118 55
191 103 69 45 219 178 221 197 3 23 6 24 15 5 9 -19 9 -19 5 2 -2 12 4 30 15
41 10 11 15 22 12 26 -3 3 2 8 11 12 9 3 14 9 12 13 -2 3 5 15 16 26 19 20 19
20 12 0 -4 -11 -17 -33 -30 -50 -15 -21 -19 -36 -14 -50 7 -17 9 -17 9 -3 1
10 14 31 30 47 16 16 26 32 23 35 -3 3 0 6 6 6 14 0 44 55 35 64 -4 3 3 16 14
29 26 28 40 52 26 44 -6 -4 -2 10 8 30 11 21 19 43 19 49 0 7 6 15 13 17 9 4
8 6 -2 6 -10 1 -10 6 4 27 9 14 14 28 11 31 -3 3 -1 13 3 22 28 52 29 311 2
384 -5 12 -7 30 -6 40 2 9 -3 17 -11 17 -7 0 -11 6 -8 14 3 8 1 17 -5 20 -6 4
-8 13 -5 21 8 21 -102 244 -136 275 -3 3 -18 23 -34 45 -44 60 -156 165 -176
165 -6 0 -10 5 -10 10 0 6 -5 10 -10 10 -10 0 -22 8 -55 38 -7 6 -18 12 -24
12 -13 0 -84 33 -91 42 -5 6 -81 36 -95 38 -5 0 -9 1 -22 5 -56 15 -94 21
-193 31 -63 6 -190 11 -194 7z m74 -70 c0 -5 -19 -9 -43 -10 -34 -1 -37 0 -17
7 33 11 60 12 60 3z m143 -8 c250 -38 451 -149 596 -330 9 -11 -20 14 -65 56
-90 85 -172 143 -254 181 -78 36 -214 76 -290 84 -107 11 -112 12 -118 18 -9
9 26 7 131 -9z m-253 -2 c-14 -3 -42 -8 -64 -13 -21 -5 -34 -5 -30 0 11 10 48
17 89 17 26 0 26 0 5 -4z m-130 -23 c-8 -5 -24 -9 -35 -9 -16 1 -16 2 5 9 35
11 48 11 30 0z m-90 -30 c-20 -13 -33 -13 -25 0 3 6 14 10 23 10 15 0 15 -2 2
-10z m-40 -14 c0 -2 -9 -6 -20 -9 -11 -3 -18 -1 -14 4 5 9 34 13 34 5z m-60
-26 c-8 -5 -19 -10 -25 -10 -5 0 -3 5 5 10 8 5 20 10 25 10 6 0 3 -5 -5 -10z
m1201 -277 c13 -16 12 -17 -3 -4 -10 7 -18 15 -18 17 0 8 8 3 21 -13z m47 -69
c-4 -3 -12 5 -18 18 -12 22 -12 22 6 6 10 -10 15 -20 12 -24z"/>
<path d="M1596 3068 c-293 -36 -557 -235 -671 -508 -19 -43 -37 -96 -40 -117
-4 -28 3 -17 27 42 67 163 144 273 253 365 173 144 421 218 641 190 219 -27
373 -105 516 -259 95 -102 158 -232 198 -407 12 -56 12 -247 0 -297 -47 -190
-69 -243 -147 -357 l-44 -65 46 50 c45 49 135 212 135 244 0 9 4 21 8 27 5 5
17 49 27 97 34 167 12 350 -64 521 -56 127 -183 273 -309 354 -150 97 -379
145 -576 120z"/>
<path d="M1005 2780 c-10 -11 -16 -22 -14 -24 2 -2 12 7 22 20 22 29 17 32 -8
4z"/>
<path d="M927 2670 c-15 -26 -27 -52 -27 -56 0 -5 14 15 31 44 17 30 29 55 27
57 -2 2 -16 -18 -31 -45z"/>
<path d="M880 2589 c0 -5 -11 -34 -25 -64 -71 -150 -85 -397 -30 -565 40 -123
76 -197 143 -286 100 -135 195 -213 344 -284 135 -65 220 -83 383 -84 123 0
152 3 239 27 104 29 222 83 303 138 118 82 307 299 287 331 -4 6 -3 8 3 5 10
-6 58 92 49 100 -2 2 -12 -16 -22 -41 -11 -25 -25 -46 -31 -46 -7 0 -14 -4
-14 -10 -1 -5 -2 -14 -3 -18 -2 -13 -67 -93 -131 -161 -77 -81 -164 -150 -237
-186 -32 -15 -58 -31 -58 -34 0 -4 -11 -8 -25 -9 -14 -1 -43 -11 -64 -21 -21
-11 -41 -17 -45 -14 -3 4 -6 1 -6 -5 0 -6 -7 -9 -15 -6 -8 3 -37 1 -66 -5 -79
-17 -243 -15 -329 5 -41 9 -87 18 -102 18 -14 1 -25 3 -23 6 2 3 -18 14 -43
24 -126 51 -333 222 -386 320 -6 11 -24 41 -40 65 -16 25 -35 61 -43 80 -32
76 -36 86 -38 97 -8 37 -18 54 -27 48 -7 -5 -9 -2 -6 7 3 9 0 37 -7 65 -13 49
-13 207 0 274 7 41 23 96 35 125 15 38 43 100 47 108 2 4 -1 7 -6 7 -6 0 -11
-5 -11 -11z"/>
<path d="M399 2547 c-3 -13 -6 -22 -18 -52 -20 -47 -15 -152 8 -207 12 -25 48
-76 81 -112 32 -36 67 -80 76 -98 25 -49 21 -138 -10 -231 -50 -149 -28 -221
91 -299 84 -56 114 -92 138 -168 56 -175 140 -231 370 -245 172 -11 255 -25
351 -61 168 -63 248 -66 404 -14 98 33 165 46 270 55 135 12 191 31 315 111
44 28 126 75 182 103 78 40 115 66 153 108 55 60 103 146 115 203 3 19 9 44
12 55 4 18 4 18 -11 -2 -9 -12 -16 -26 -15 -30 2 -15 -13 -53 -21 -53 -5 0
-11 -9 -15 -20 -3 -11 -9 -19 -13 -19 -22 3 -29 -4 -27 -26 2 -14 0 -23 -3
-21 -4 2 -17 -13 -30 -33 -29 -45 -100 -92 -136 -89 -14 1 -26 6 -26 11 0 4
-5 5 -10 2 -6 -4 -8 -9 -6 -13 2 -4 -2 -12 -9 -19 -11 -10 -14 -10 -18 0 -3 7
-9 0 -15 -15 -11 -26 -32 -47 -32 -30 0 5 -7 9 -15 9 -10 0 -12 -4 -4 -13 7
-9 2 -18 -20 -33 -16 -12 -36 -21 -45 -21 -9 0 -15 -5 -14 -11 3 -13 -78 -59
-102 -58 -10 0 -11 2 -3 6 7 2 13 9 13 15 0 6 7 16 16 22 13 10 13 12 -6 13
-11 1 -18 -2 -15 -7 3 -5 -3 -11 -14 -15 -13 -4 -18 -12 -15 -28 4 -19 3 -19
-7 3 -7 15 -13 20 -16 13 -4 -10 -10 -10 -26 -1 -21 11 -21 10 -7 -8 8 -10 10
-16 6 -12 -5 4 -15 3 -22 -3 -10 -8 -11 -5 -7 13 5 22 5 22 -10 3 -15 -19 -28
-22 -122 -28 -28 -2 -66 -11 -85 -21 -32 -17 -89 -27 -161 -30 -15 -1 -25 -5
-23 -11 3 -6 -22 -10 -63 -10 -38 0 -76 -4 -87 -8 -13 -6 -21 -5 -27 4 -5 8
-9 10 -9 5 0 -5 -7 -3 -15 4 -8 7 -21 10 -28 7 -14 -5 -94 13 -114 26 -8 5
-13 3 -13 -5 0 -9 -2 -10 -8 -2 -7 11 -105 41 -167 52 -16 2 -35 9 -42 14 -7
5 -17 7 -23 3 -5 -3 -10 -1 -10 6 0 7 -3 9 -6 6 -4 -3 -15 -2 -25 3 -11 6 -19
6 -21 0 -2 -6 -19 -2 -39 9 -20 11 -40 17 -43 14 -3 -4 -6 -1 -6 5 0 7 -3 11
-7 10 -14 -2 -43 14 -38 22 2 4 -6 6 -18 5 -25 -2 -68 21 -81 43 -7 12 -10 12
-18 1 -7 -10 -8 -3 -4 21 4 22 3 30 -3 21 -7 -11 -10 -9 -16 8 -3 12 -11 19
-16 15 -12 -7 -50 37 -44 53 2 7 -1 15 -7 19 -7 5 -8 2 -3 -6 5 -8 4 -11 -2
-7 -5 3 -18 24 -29 46 -10 23 -22 41 -26 41 -5 0 -8 6 -8 13 0 7 -9 19 -20 27
-11 8 -20 19 -20 25 0 6 -11 21 -25 33 -14 12 -25 26 -25 32 0 5 -5 9 -12 7
-7 -1 -13 4 -14 11 -3 26 -5 26 -19 8 -8 -11 -18 -17 -21 -13 -4 3 1 14 11 23
12 13 13 19 4 24 -6 4 -9 13 -5 19 5 7 1 9 -8 5 -11 -4 -16 0 -16 11 0 9 5 13
10 10 6 -3 10 1 10 9 0 20 -5 20 -24 0 -9 -8 -16 -11 -16 -5 0 5 5 13 11 17 8
5 7 9 -1 14 -19 12 -4 40 22 41 17 0 19 2 8 7 -16 8 -24 72 -9 72 5 0 7 10 4
23 -3 12 -7 38 -10 57 -10 79 -30 143 -50 160 -8 7 -12 16 -9 21 3 5 -3 9 -13
10 -10 0 -13 3 -5 6 6 2 12 9 12 14 0 6 -4 8 -9 5 -5 -3 -14 1 -21 9 -7 8 -17
12 -23 8 -6 -3 -7 -1 -3 6 9 14 -2 51 -15 51 -6 0 -7 -4 -4 -10 3 -5 1 -10 -4
-10 -14 0 -14 17 -1 25 6 3 10 11 10 17 0 7 -6 6 -15 -2 -10 -9 -15 -9 -15 -1
0 6 -7 11 -16 11 -13 0 -14 3 -5 14 9 11 9 15 -1 19 -8 4 -7 6 4 6 14 1 16 6
8 25 -5 13 -6 27 -3 30 4 3 -2 15 -12 26 -15 16 -16 22 -5 35 11 13 10 19 -3
33 -10 9 -18 13 -18 9z m191 -783 c0 -8 -19 -13 -24 -6 -3 5 1 9 9 9 8 0 15
-2 15 -3z m85 -94 c3 -5 1 -10 -4 -10 -6 0 -11 5 -11 10 0 6 2 10 4 10 3 0 8
-4 11 -10z m245 -330 c0 -5 -2 -10 -4 -10 -3 0 -8 5 -11 10 -3 6 -1 10 4 10 6
0 11 -4 11 -10z"/>
<path d="M2240 2511 c0 -6 4 -13 10 -16 6 -3 7 1 4 9 -7 18 -14 21 -14 7z"/>
<path d="M766 2495 c-3 -8 -1 -15 4 -15 6 0 10 7 10 15 0 8 -2 15 -4 15 -2 0
-6 -7 -10 -15z"/>
<path d="M790 2476 c0 -9 -4 -14 -10 -11 -5 3 -10 0 -10 -7 0 -9 -3 -9 -10 2
-8 12 -10 10 -9 -10 0 -14 -1 -34 -4 -45 -2 -11 -2 -14 0 -7 3 6 9 12 15 12 6
0 7 -8 3 -17 -9 -22 -20 -250 -12 -243 3 3 7 39 8 79 1 41 10 115 20 165 10
49 16 92 14 95 -3 2 -5 -3 -5 -13z"/>
<path d="M471 2374 c0 -11 3 -14 6 -6 3 7 2 16 -1 19 -3 4 -6 -2 -5 -13z"/>
<path d="M872 2370 c0 -14 2 -19 5 -12 2 6 2 18 0 25 -3 6 -5 1 -5 -13z"/>
<path d="M513 2285 c0 -8 4 -12 9 -9 5 3 6 10 3 15 -9 13 -12 11 -12 -6z"/>
<path d="M1145 2230 c0 -42 4 -70 10 -70 7 0 9 15 7 35 l-4 35 47 0 47 0 -4
-35 c-2 -20 0 -35 7 -35 6 0 10 28 10 70 0 43 -4 70 -11 70 -6 0 -9 -13 -6
-30 4 -30 4 -30 -43 -30 -47 0 -47 0 -43 30 3 17 0 30 -6 30 -7 0 -11 -27 -11
-70z"/>
<path d="M1352 2275 c-15 -32 -15 -46 -1 -21 9 15 13 16 20 5 14 -22 11 -29
-14 -29 -17 0 -28 -10 -40 -35 -15 -31 -15 -35 -1 -35 8 0 12 4 9 10 -11 18
15 50 41 50 19 0 29 -7 37 -30 6 -16 16 -30 23 -30 6 0 -4 31 -22 70 -19 39
-35 70 -37 70 -2 0 -9 -11 -15 -25z"/>
<path d="M1478 2284 c41 -29 44 -47 11 -87 -18 -22 -25 -37 -17 -37 7 1 25 18
39 38 25 36 25 38 7 56 -10 11 -18 25 -18 33 0 7 -10 13 -22 13 l-22 0 22 -16z"/>
<path d="M1545 2230 c0 -49 4 -70 13 -70 7 0 12 14 12 35 0 19 4 35 9 35 5 0
19 -16 31 -35 12 -19 28 -35 37 -35 12 0 12 3 -2 16 -9 9 -23 27 -32 40 -8 13
-22 24 -29 24 -9 0 -14 11 -14 30 0 17 -5 30 -12 30 -9 0 -13 -21 -13 -70z"/>
<path d="M1612 2275 c-6 -14 -10 -25 -9 -25 2 0 13 11 25 25 15 17 17 25 9 25
-8 0 -19 -11 -25 -25z"/>
<path d="M1726 2228 l36 -71 19 43 c24 52 24 66 1 22 l-18 -32 -27 55 c-15 30
-31 55 -36 55 -6 0 6 -32 25 -72z"/>
<path d="M1810 2280 c-8 -15 -8 -20 1 -20 7 0 10 -17 7 -50 -2 -29 1 -50 7
-50 6 0 10 30 10 70 0 72 -6 85 -25 50z"/>
<path d="M1882 2230 c0 -38 3 -70 7 -70 4 0 24 23 45 50 54 71 59 71 54 6 -2
-33 1 -56 7 -56 6 0 9 28 6 72 l-3 73 -27 -34 c-14 -19 -36 -46 -49 -60 l-23
-26 3 58 c2 37 -1 57 -8 57 -7 0 -11 -26 -12 -70z"/>
<path d="M2040 2285 c0 -8 2 -15 4 -15 2 0 6 7 10 15 3 8 1 15 -4 15 -6 0 -10
-7 -10 -15z"/>
<path d="M2090 2230 c0 -49 4 -70 13 -70 8 0 12 21 12 70 0 49 -4 70 -12 70
-9 0 -13 -21 -13 -70z"/>
<path d="M2145 2290 c3 -5 8 -10 11 -10 2 0 4 5 4 10 0 6 -5 10 -11 10 -5 0
-7 -4 -4 -10z"/>
<path d="M2200 2230 c0 -49 4 -70 13 -70 8 0 12 21 12 70 0 49 -4 70 -12 70
-9 0 -13 -21 -13 -70z"/>
<path d="M2240 2296 c0 -2 9 -6 20 -9 11 -3 18 -1 14 4 -5 9 -34 13 -34 5z"/>
<path d="M2313 2250 c0 -30 2 -43 4 -27 2 15 2 39 0 55 -2 15 -4 2 -4 -28z"/>
<path d="M2255 2230 c3 -5 8 -10 11 -10 2 0 4 5 4 10 0 6 -5 10 -11 10 -5 0
-7 -4 -4 -10z"/>
<path d="M1066 2136 c6 -80 47 -199 91 -266 76 -116 210 -218 343 -262 91 -29
262 -36 349 -13 128 33 268 118 342 207 40 48 104 160 113 198 4 14 -5 2 -18
-27 -84 -179 -243 -311 -434 -358 -84 -22 -232 -22 -282 -2 -8 4 -26 8 -40 11
-47 8 -210 85 -217 103 -3 7 -10 13 -16 13 -6 0 -35 26 -64 58 -86 92 -137
205 -167 372 -3 14 -3 -2 0 -34z"/>
<path d="M1690 2175 c0 -8 4 -15 10 -15 5 0 7 7 4 15 -4 8 -8 15 -10 15 -2 0
-4 -7 -4 -15z"/>
<path d="M2260 2170 c-13 -8 -12 -10 3 -10 9 0 17 5 17 10 0 12 -1 12 -20 0z"/>
<path d="M2296 2119 c-4 -23 -5 -44 -2 -46 2 -2 7 14 11 37 4 23 5 43 2 46 -2
3 -7 -14 -11 -37z"/>
<path d="M761 2114 c0 -11 3 -14 6 -6 3 7 2 16 -1 19 -3 4 -6 -2 -5 -13z"/>
<path d="M2917 2113 c-4 -3 -7 -11 -7 -17 0 -6 5 -5 12 2 6 6 9 14 7 17 -3 3
-9 2 -12 -2z"/>
<path d="M2631 2088 c0 -16 -5 -28 -9 -28 -4 0 -8 -12 -9 -27 -1 -27 -1 -27
13 6 8 18 13 43 11 55 -3 16 -5 15 -6 -6z"/>
<path d="M2912 2060 c0 -14 2 -19 5 -12 2 6 2 18 0 25 -3 6 -5 1 -5 -13z"/>
<path d="M2267 2011 c-4 -17 -3 -21 5 -13 5 5 8 16 6 23 -3 8 -7 3 -11 -10z"/>
<path d="M2601 1984 c0 -11 3 -14 6 -6 3 7 2 16 -1 19 -3 4 -6 -2 -5 -13z"/>
<path d="M2231 1933 c-10 -26 -10 -27 4 -9 8 11 15 23 15 28 0 15 -7 8 -19
-19z"/>
<path d="M2190 1870 c-12 -16 -19 -30 -16 -30 2 0 14 14 26 30 12 17 19 30 16
30 -2 0 -14 -13 -26 -30z"/>
<path d="M1040 1809 c0 -18 3 -29 7 -26 3 4 17 0 31 -9 19 -13 27 -13 36 -3 8
9 8 10 -1 5 -7 -4 -13 -3 -13 3 0 5 -9 13 -20 16 -11 4 -18 9 -16 13 2 4 -2
13 -10 20 -12 11 -14 8 -14 -19z"/>
<path d="M1155 1689 c-5 -7 -1 -16 9 -21 9 -5 16 -16 16 -23 0 -23 16 -17 35
13 10 15 12 21 4 15 -10 -10 -17 -9 -35 8 -16 15 -24 17 -29 8z"/>
<path d="M2187 1678 c13 -6 25 -19 28 -29 8 -25 22 -24 30 1 3 11 14 20 23 20
14 0 15 2 3 9 -10 7 -18 5 -26 -6 -10 -13 -12 -13 -24 1 -8 9 -23 16 -35 15
-21 0 -21 0 1 -11z"/>
<path d="M2060 1630 c0 -19 3 -21 12 -12 9 9 9 15 0 24 -9 9 -12 7 -12 -12z"/>
<path d="M2030 1591 c0 -5 7 -11 15 -15 8 -3 15 -15 15 -26 0 -24 22 -26 40
-5 7 8 21 15 32 15 10 0 16 5 13 10 -9 14 -45 13 -45 -2 0 -7 -6 -6 -17 4 -23
19 -53 30 -53 19z"/>
<path d="M1335 1543 c2 -29 7 -38 21 -39 11 -1 27 -5 37 -9 24 -10 33 1 15 17
-8 7 -28 26 -45 41 l-30 28 2 -38z"/>
<path d="M1907 1563 c-4 -3 -7 -11 -7 -17 0 -6 5 -5 12 2 6 6 9 14 7 17 -3 3
-9 2 -12 -2z"/>
<path d="M1420 1535 c-11 -13 -10 -14 4 -9 9 3 16 10 16 15 0 13 -6 11 -20 -6z"/>
<path d="M1860 1521 c0 -5 7 -14 15 -21 9 -7 14 -19 11 -26 -8 -20 13 -28 31
-12 9 7 28 11 42 10 l26 -3 -23 16 c-12 9 -27 13 -33 10 -6 -4 -16 0 -22 8
-14 17 -47 30 -47 18z"/>
<path d="M1498 1504 c5 -9 7 -25 5 -35 -4 -16 0 -19 25 -19 17 0 34 -5 37 -10
4 -6 11 -8 16 -4 13 7 -19 44 -38 44 -7 0 -13 4 -13 10 0 5 -9 14 -21 21 -18
9 -20 9 -11 -7z"/>
<path d="M1590 1490 c-8 -5 -12 -12 -9 -15 4 -3 12 1 19 10 14 17 11 19 -10 5z"/>
<path d="M1660 1496 c0 -4 4 -14 9 -24 5 -9 12 -25 15 -35 5 -15 9 -16 26 -7
14 8 26 8 40 0 11 -6 20 -7 20 -3 -1 15 -30 47 -36 40 -4 -4 -22 3 -41 14 -18
11 -33 18 -33 15z"/>
<path d="M1770 1480 c-9 -6 -10 -10 -3 -10 6 0 15 5 18 10 8 12 4 12 -15 0z"/>
<path d="M1990 1330 c-9 -6 -10 -10 -3 -10 6 0 15 5 18 10 8 12 4 12 -15 0z"/>
</g>
</svg>
