<?xml version="1.0" standalone="no"?>
<!DOCTYPE svg PUBLIC "-//W3C//DTD SVG 20010904//EN"
 "http://www.w3.org/TR/2001/REC-SVG-20010904/DTD/svg10.dtd">
<svg version="1.0" xmlns="http://www.w3.org/2000/svg"
 width="640.000000pt" height="262.000000pt" viewBox="0 0 640.000000 262.000000"
 preserveAspectRatio="xMidYMid meet">

<g transform="translate(0.000000,262.000000) scale(0.100000,-0.100000)"
fill="#000000" stroke="none">
<path d="M1260 1831 c-14 -4 19 -6 73 -3 115 6 168 -11 188 -60 28 -67 -34
-163 -265 -413 -221 -239 -276 -326 -245 -391 10 -21 22 -30 45 -32 55 -5 145
68 419 341 316 315 462 445 591 522 32 19 53 35 47 35 -19 0 -156 -95 -253
-175 -52 -44 -228 -210 -390 -370 -222 -218 -309 -298 -351 -319 -62 -33 -89
-30 -89 9 0 59 49 127 264 360 208 226 266 312 266 395 0 36 -33 77 -77 95
-37 16 -177 19 -223 6z"/>
<path d="M2136 1827 c4 -11 -14 -29 -58 -58 -320 -216 -759 -698 -1099 -1207
-162 -242 -220 -371 -173 -389 24 -9 64 36 230 262 84 116 197 264 249 330
107 135 284 329 293 320 3 -3 -6 -18 -20 -33 -34 -36 -185 -241 -237 -321 -42
-65 -52 -101 -28 -101 16 0 55 41 86 90 l22 35 -28 -34 c-61 -74 -66 -78 -42
-34 24 45 293 410 335 454 28 29 30 39 9 39 -26 0 -298 -281 -421 -435 -66
-82 -179 -234 -252 -336 -74 -103 -144 -197 -158 -210 -24 -22 -24 -22 -24 -1
0 28 15 60 74 162 247 424 793 1068 1144 1347 73 59 131 111 129 117 -2 6 -11
12 -20 14 -12 2 -15 -1 -11 -11z"/>
<path d="M1170 1806 c-116 -43 -244 -129 -327 -219 -26 -29 -83 -77 -127 -106
-156 -106 -280 -247 -320 -366 -10 -28 -34 -65 -57 -89 -104 -104 -156 -229
-129 -311 12 -36 43 -65 70 -65 9 1 4 7 -11 15 -82 45 -50 212 65 340 l45 50
1 -32 c0 -19 10 -44 27 -63 25 -30 30 -32 81 -28 48 4 60 10 88 41 41 44 53
97 30 132 -9 14 -24 25 -34 24 -13 0 -13 -2 4 -9 48 -19 34 -103 -25 -153 -45
-38 -111 -38 -140 -1 -26 33 -27 85 -3 107 9 9 38 25 62 36 25 11 38 21 30 21
-8 0 -34 -11 -57 -25 -24 -13 -43 -19 -43 -14 0 14 39 88 70 134 62 89 319
315 296 260 -55 -130 -40 -197 51 -231 125 -48 362 64 428 202 23 48 23 108 0
134 -53 59 -210 49 -378 -24 l-38 -17 15 23 c47 70 217 185 341 229 27 10 43
18 35 18 -8 0 -31 -6 -50 -13z m55 -216 c28 -27 33 -79 11 -118 -22 -41 -108
-122 -166 -157 -118 -72 -230 -81 -293 -25 -28 25 -32 34 -31 78 0 32 9 68 25
99 21 42 33 52 99 85 96 48 177 68 262 65 55 -2 72 -7 93 -27z"/>
<path d="M6224 1223 c-43 -50 -145 -195 -141 -200 5 -5 197 208 197 220 0 17
-34 5 -56 -20z"/>
<path d="M5825 1119 c-35 -34 -62 -65 -60 -70 3 -4 -27 -52 -68 -106 -179
-238 -218 -308 -173 -308 12 0 33 19 54 50 l35 50 -37 -40 c-90 -97 71 138
249 365 54 68 88 120 80 120 -8 0 -44 -27 -80 -61z m-15 -32 c0 -2 -10 -12
-22 -23 l-23 -19 19 23 c18 21 26 27 26 19z"/>
<path d="M1684 1091 c-39 -24 -92 -78 -158 -161 -67 -84 -129 -170 -123 -170
2 0 37 44 78 98 90 119 198 232 224 232 17 0 16 -3 -7 -27 -14 -16 -33 -41
-43 -56 -38 -60 35 -61 101 -1 l39 35 -44 -31 c-71 -49 -82 -37 -26 30 20 24
34 48 32 54 -6 19 -40 17 -73 -3z"/>
<path d="M1957 1079 c-43 -35 -75 -95 -60 -110 13 -13 67 9 111 45 33 29 42
25 17 -8 -15 -20 -5 -46 18 -46 15 0 99 51 94 57 -3 3 -19 -5 -36 -18 -17 -12
-34 -20 -37 -16 -8 7 28 67 56 92 11 10 20 22 20 27 0 19 -29 5 -95 -48 -121
-96 -144 -98 -71 -4 51 65 43 79 -17 29z"/>
<path d="M2225 1086 c-58 -27 -80 -50 -83 -88 -4 -37 28 -45 78 -20 32 15 40
17 40 5 0 -42 59 -19 146 57 49 43 74 59 74 47 0 -2 -18 -28 -40 -57 -69 -92
-54 -93 65 -5 107 80 132 84 76 14 -38 -48 -51 -79 -33 -79 4 0 30 18 57 39
91 71 124 93 135 89 7 -2 -4 -23 -24 -48 -38 -48 -44 -68 -22 -76 23 -9 78 21
139 75 32 28 63 51 68 51 6 0 -8 -25 -30 -57 -63 -86 -53 -97 29 -32 133 105
172 117 106 32 -25 -31 -43 -61 -40 -65 7 -11 67 23 67 37 0 6 10 23 23 38 13
16 24 38 24 49 0 32 -54 16 -123 -38 l-59 -45 27 45 c27 47 22 63 -17 51 -11
-4 -52 -34 -91 -66 -95 -80 -114 -78 -55 6 56 79 2 88 -91 15 -60 -48 -72 -51
-37 -9 28 33 32 44 15 54 -18 12 -55 -4 -118 -50 l-61 -45 26 40 c19 29 24 44
17 51 -17 17 -52 1 -102 -46 -109 -99 -147 -102 -70 -5 68 87 30 77 -67 -17
-57 -56 -94 -73 -94 -43 0 26 99 113 122 107 10 -3 16 -1 12 4 -9 15 -36 10
-89 -15z"/>
<path d="M3111 1069 c-58 -38 -80 -59 -65 -59 3 0 22 13 40 30 38 33 94 65 94
53 0 -5 -16 -28 -35 -52 -37 -47 -43 -68 -22 -77 22 -8 61 11 120 60 l56 45
-25 -36 c-27 -40 -28 -66 -3 -71 9 -2 47 18 84 43 37 25 63 40 59 33 -4 -7
-46 -67 -94 -133 -157 -217 -184 -265 -148 -273 18 -3 20 0 157 183 94 126
261 303 206 218 -28 -43 -28 -73 -1 -73 8 0 44 20 80 44 36 24 66 43 66 41 0
-2 -50 -73 -111 -157 -113 -155 -149 -214 -149 -243 0 -40 42 0 146 138 61 81
137 175 170 209 32 34 46 51 29 38 -46 -37 -135 -143 -226 -268 -45 -62 -84
-111 -87 -107 -6 6 87 143 220 323 50 67 88 126 84 129 -3 4 -25 -8 -49 -26
-72 -54 -141 -101 -150 -101 -11 0 10 37 46 82 71 89 -27 43 -131 -61 -43 -42
-121 -139 -176 -214 -54 -75 -100 -137 -102 -137 -19 0 32 78 197 301 60 81
109 149 109 153 0 16 -27 1 -105 -59 -117 -89 -132 -88 -64 2 22 30 39 57 36
59 -10 10 -64 -19 -112 -60 -51 -44 -94 -71 -101 -64 -2 3 12 27 32 56 58 82
24 97 -75 31z"/>
<path d="M3944 1074 c-21 -19 -33 -33 -26 -29 7 4 1 -10 -13 -30 -44 -67 -10
-66 63 0 43 38 111 85 123 85 5 0 9 -9 9 -21 0 -14 5 -19 18 -17 25 5 22 42
-5 46 -28 4 -74 -20 -125 -66 -43 -38 -43 -31 -1 24 13 17 23 34 23 37 0 17
-30 4 -66 -29z"/>
<path d="M4245 1091 c-22 -10 -66 -39 -99 -65 -32 -25 -62 -46 -67 -46 -4 0
-14 12 -21 27 -19 38 -38 41 -38 6 0 -30 15 -53 36 -53 7 0 34 15 60 33 l49
32 0 -30 c0 -25 4 -31 27 -33 14 -2 45 6 67 17 22 12 48 21 58 22 10 0 13 3 6
6 -9 3 -6 13 9 33 17 24 19 34 10 52 -8 18 -11 19 -11 6 -1 -19 -9 -30 -64
-90 -36 -39 -67 -50 -67 -23 0 25 29 63 73 95 46 34 32 39 -28 11z"/>
<path d="M4445 1094 c-32 -16 -115 -84 -103 -84 4 0 24 15 45 33 l37 32 -37
-49 c-20 -27 -34 -52 -31 -57 10 -17 34 -9 55 20 12 16 27 27 35 24 8 -3 11 2
10 14 -2 10 5 30 16 45 23 33 12 41 -27 22z"/>
<path d="M4714 1091 c-22 -10 -64 -39 -93 -65 -78 -69 -96 -60 -36 18 40 53
41 56 17 56 -30 0 -89 -70 -88 -105 1 -26 4 -30 29 -28 15 1 40 11 56 23 l30
20 3 -22 c2 -19 10 -23 38 -25 19 -1 27 1 18 3 -38 11 -8 67 62 119 40 29 22
32 -36 6z"/>
<path d="M4800 1096 c0 -9 -7 -24 -15 -33 -9 -10 -30 -36 -47 -57 l-33 -39 32
17 c18 9 40 16 50 17 11 0 13 3 5 6 -9 3 -7 12 8 30 22 28 26 58 10 68 -5 3
-10 -1 -10 -9z"/>
<path d="M4895 1086 c-16 -13 -30 -28 -30 -33 -1 -4 -11 -24 -23 -43 -41 -66
-24 -67 54 -4 67 55 123 94 135 94 5 0 9 -9 9 -21 0 -14 5 -19 18 -17 26 5 22
42 -6 46 -25 4 -96 -34 -126 -67 -33 -37 -39 -23 -7 18 17 21 31 42 31 45 0
13 -27 5 -55 -18z"/>
<path d="M5162 1088 c-17 -13 -54 -42 -82 -65 -29 -24 -56 -43 -60 -43 -5 0
-15 12 -22 27 -20 41 -38 41 -38 -1 0 -68 51 -57 153 33 86 76 96 70 30 -17
-33 -44 -40 -62 -24 -62 5 0 48 29 96 65 106 79 130 84 75 14 -37 -47 -50 -79
-33 -79 4 0 41 26 83 58 78 61 120 87 120 76 0 -3 -16 -28 -36 -55 -42 -57
-40 -85 4 -74 15 3 41 17 57 29 48 36 50 36 50 3 0 -28 3 -32 30 -34 17 -1 22
1 13 3 -10 3 -18 9 -18 12 0 20 44 75 81 102 23 16 36 30 28 30 -25 -1 -99
-39 -142 -73 -45 -36 -86 -61 -92 -55 -2 2 12 27 32 55 19 28 32 56 29 62 -16
25 -42 13 -156 -66 l-25 -17 23 25 c26 29 30 69 7 69 -24 0 -75 -28 -124 -68
l-43 -35 26 42 c39 61 17 82 -42 39z"/>
<path d="M5700 1102 c0 -15 -30 -57 -72 -103 -28 -31 -24 -39 8 -14 10 8 30
15 44 15 14 1 20 4 13 6 -8 4 -6 15 8 39 16 26 18 38 10 52 -7 11 -11 13 -11
5z"/>
<path d="M5894 1082 c-39 -28 -121 -118 -180 -197 -64 -85 -105 -145 -101
-145 3 0 29 33 58 73 76 105 184 232 219 257 47 34 56 19 16 -29 -37 -44 -44
-65 -26 -76 17 -10 72 13 110 46 38 34 23 29 -26 -8 -30 -22 -54 -30 -54 -17
0 4 16 27 36 51 58 70 24 100 -52 45z"/>
<path d="M4829 1029 c-23 -19 -23 -20 -2 -10 12 6 25 16 28 21 10 16 -1 12
-26 -11z"/>
<path d="M5724 1029 c-19 -22 -19 -22 4 -8 12 8 22 17 22 21 0 12 -6 9 -26
-13z"/>
<path d="M1865 1005 c-35 -29 -45 -31 -45 -10 0 20 -29 19 -37 -1 -16 -43 59
-33 101 15 25 28 18 26 -19 -4z"/>
<path d="M6043 985 c-3 -9 -3 -19 1 -22 7 -7 36 16 36 28 0 15 -30 10 -37 -6z"/>
</g>
</svg>
