<?xml version="1.0" encoding="UTF-8"?>
<svg xmlns="http://www.w3.org/2000/svg" xmlns:xlink="http://www.w3.org/1999/xlink" width="200px" height="194px" viewBox="0 0 199 194" version="1.1">
<g id="surface1">
<path style=" stroke:none;fill-rule:nonzero;fill:rgb(37.254903%,0%,0%);fill-opacity:1;" d="M 96.648438 87.292969 C 96.648438 89.585938 95.753906 91.457031 93.960938 92.898438 C 92.300781 94.234375 90.296875 94.902344 87.949219 94.902344 C 86.710938 94.902344 85.660156 94.613281 84.792969 94.035156 C 83.777344 93.375 83.273438 92.460938 83.273438 91.289062 C 83.273438 89.992188 83.828125 88.929688 84.933594 88.089844 C 85.007812 88.035156 85.128906 87.972656 85.296875 87.898438 L 85.378906 87.957031 C 85.339844 88.03125 85.257812 88.121094 85.128906 88.234375 C 84.089844 89.140625 83.574219 90.160156 83.574219 91.289062 C 83.574219 92.308594 84.054688 93.074219 85.019531 93.597656 C 85.757812 93.984375 86.691406 94.179688 87.816406 94.179688 C 89.960938 94.179688 91.871094 93.578125 93.550781 92.367188 C 95.414062 91.039062 96.347656 89.347656 96.347656 87.292969 C 96.347656 85.496094 95.609375 84.113281 94.128906 83.148438 C 92.855469 82.335938 91.277344 81.925781 89.394531 81.925781 C 84.589844 81.925781 80.011719 83.828125 75.65625 87.621094 C 76.484375 89.402344 76.898438 91.390625 76.898438 93.597656 C 76.898438 96.296875 76.253906 98.796875 74.960938 101.09375 C 73.667969 103.386719 71.867188 105.277344 69.558594 106.757812 C 66.546875 108.683594 62.140625 109.648438 56.34375 109.648438 C 54.679688 109.648438 52.769531 109.539062 50.609375 109.316406 C 50.5 109.316406 50.085938 109.261719 49.363281 109.148438 C 48.828125 109.078125 48.402344 109.039062 48.089844 109.039062 C 48 109.039062 47.417969 109.140625 46.34375 109.34375 C 45.199219 109.566406 44.523438 109.6875 44.316406 109.707031 C 41.898438 110.019531 39.257812 110.175781 36.398438 110.175781 C 31.835938 110.175781 29.554688 109.835938 29.554688 109.148438 C 29.554688 108.261719 32.121094 107.820312 37.257812 107.820312 C 39.230469 107.820312 42.101562 108.011719 45.871094 108.402344 C 47.535156 108.585938 48.320312 108.679688 48.230469 108.679688 C 48.300781 108.679688 48.660156 108.59375 49.304688 108.425781 C 51.800781 107.78125 54.039062 106.761719 56.015625 105.371094 C 58.210938 103.832031 60.804688 101.371094 63.800781 97.984375 C 68.152344 93.039062 71.867188 89.410156 74.933594 87.097656 C 72.699219 82.765625 68.121094 80.597656 61.195312 80.597656 C 58.144531 80.597656 55.195312 81.125 52.355469 82.179688 C 49.214844 83.324219 46.710938 84.9375 44.847656 87.011719 C 42.742188 89.34375 41.691406 91.851562 41.691406 94.539062 C 41.691406 96.558594 42.316406 98.160156 43.570312 99.355469 C 44.832031 100.554688 46.464844 101.152344 48.476562 101.152344 C 51.375 101.152344 54.027344 100.179688 56.433594 98.238281 C 58.847656 96.289062 60.054688 94.148438 60.054688 91.8125 C 60.054688 90.515625 59.636719 89.476562 58.804688 88.6875 C 57.972656 87.902344 56.914062 87.511719 55.621094 87.511719 C 53.882812 87.511719 52.324219 88.105469 50.945312 89.285156 C 49.484375 90.550781 48.75 92.03125 48.75 93.734375 C 48.75 93.804688 48.765625 93.890625 48.792969 93.984375 C 48.820312 94.074219 48.835938 94.148438 48.835938 94.203125 C 48.835938 94.261719 48.804688 94.289062 48.75 94.289062 C 48.589844 94.289062 48.507812 94.03125 48.507812 93.515625 C 48.507812 91.75 49.265625 90.234375 50.777344 88.957031 C 52.238281 87.734375 53.851562 87.121094 55.621094 87.121094 C 57.210938 87.121094 58.460938 87.59375 59.375 88.527344 C 60.292969 89.460938 60.75 90.714844 60.75 92.285156 C 60.75 94.878906 59.484375 97.148438 56.957031 99.097656 C 54.59375 100.925781 52.078125 101.839844 49.414062 101.839844 C 47.089844 101.839844 45.199219 101.242188 43.738281 100.039062 C 42.171875 98.742188 41.386719 96.957031 41.386719 94.675781 C 41.386719 90.4375 43.5 86.835938 47.726562 83.871094 C 51.589844 81.167969 56.066406 79.8125 61.164062 79.8125 C 64.0625 79.8125 66.734375 80.378906 69.175781 81.507812 C 71.90625 82.753906 73.925781 84.542969 75.238281 86.871094 C 79.984375 83.375 84.703125 81.625 89.394531 81.625 C 91.425781 81.625 93.089844 82.050781 94.382812 82.894531 C 95.894531 83.902344 96.648438 85.367188 96.648438 87.292969 Z M 76.175781 92.765625 C 76.175781 91.058594 75.890625 89.445312 75.320312 87.929688 C 73.753906 89.316406 72.023438 91.066406 70.140625 93.175781 C 68.515625 95.03125 66.898438 96.882812 65.292969 98.734375 C 60.859375 103.808594 55.464844 107.160156 49.113281 108.789062 L 49.113281 108.8125 C 51.882812 109.09375 54.257812 109.234375 56.234375 109.234375 C 57.488281 109.234375 58.59375 109.175781 59.558594 109.066406 C 62.515625 108.734375 65.273438 107.757812 67.839844 106.128906 C 70.410156 104.492188 72.460938 102.417969 73.992188 99.894531 C 75.449219 97.472656 76.175781 95.09375 76.175781 92.765625 Z M 47.003906 108.929688 L 47.003906 108.898438 C 42.816406 108.378906 39.550781 108.121094 37.207031 108.121094 C 34.578125 108.121094 32.632812 108.261719 31.359375 108.535156 C 30.414062 108.742188 29.941406 108.949219 29.941406 109.148438 C 29.941406 109.238281 30.097656 109.3125 30.414062 109.367188 C 30.964844 109.480469 32.074219 109.539062 33.738281 109.539062 L 36.425781 109.539062 C 41.003906 109.539062 44.53125 109.335938 47.003906 108.929688 Z M 47.003906 108.929688 "/>
<path style=" stroke:none;fill-rule:nonzero;fill:rgb(37.254903%,0%,0%);fill-opacity:1;" d="M 81.015625 105.621094 C 81.015625 105.847656 80.664062 106.183594 79.964844 106.625 C 79.265625 107.066406 78.777344 107.289062 78.496094 107.289062 C 78.253906 107.289062 78.089844 107.261719 78 107.203125 C 76.707031 108.113281 75.65625 108.570312 74.84375 108.570312 C 73.9375 108.570312 73.484375 108.226562 73.484375 107.542969 C 73.484375 106.859375 73.742188 106.21875 74.257812 105.621094 L 74.257812 105.597656 C 73.78125 106.074219 73.488281 106.3125 73.375 106.3125 C 73.359375 106.3125 73.347656 106.304688 73.347656 106.285156 L 73.347656 106.238281 C 73.347656 106.238281 73.359375 106.199219 73.375 106.117188 C 73.945312 105.511719 74.71875 104.941406 75.699219 104.402344 C 76.753906 103.84375 77.65625 103.558594 78.414062 103.542969 L 78.582031 103.675781 C 78.5625 103.695312 78.464844 103.75 78.277344 103.84375 C 77.667969 104.144531 76.9375 104.726562 76.085938 105.597656 C 75.144531 106.554688 74.675781 107.328125 74.675781 107.902344 C 74.675781 108.164062 74.804688 108.292969 75.0625 108.292969 C 75.785156 108.292969 76.644531 107.726562 77.640625 106.589844 C 77.878906 105.628906 78.339844 105.003906 79.027344 104.703125 C 79.082031 104.574219 79.109375 104.347656 79.109375 104.011719 C 79.109375 103.976562 79.09375 103.925781 79.066406 103.863281 C 79.039062 103.792969 79.027344 103.742188 79.027344 103.703125 C 79.027344 103.628906 79.082031 103.59375 79.195312 103.59375 C 79.355469 103.59375 79.496094 103.710938 79.613281 103.945312 C 79.734375 104.179688 79.796875 104.382812 79.796875 104.570312 C 79.796875 105.214844 79.273438 106.03125 78.21875 107.011719 C 78.273438 107.027344 78.332031 107.035156 78.386719 107.035156 C 78.8125 107.035156 79.289062 106.816406 79.824219 106.371094 C 80.433594 105.871094 80.824219 105.601562 80.992188 105.5625 C 81.007812 105.585938 81.015625 105.605469 81.015625 105.621094 Z M 81.015625 105.621094 "/>
<path style=" stroke:none;fill-rule:nonzero;fill:rgb(37.254903%,0%,0%);fill-opacity:1;" d="M 90.050781 105.5625 C 90.011719 105.84375 89.375 106.445312 88.136719 107.375 C 87.15625 108.113281 86.324219 108.484375 85.644531 108.484375 C 85.03125 108.484375 84.726562 108.273438 84.726562 107.84375 C 84.726562 107.363281 85.148438 106.671875 85.988281 105.765625 C 86.828125 104.855469 87.246094 104.335938 87.246094 104.207031 C 87.246094 104.113281 87.171875 104.0625 87.027344 104.0625 C 86.070312 104.0625 84.207031 105.789062 81.4375 109.234375 C 80.328125 110.601562 78.5625 112.972656 76.144531 116.339844 C 75.792969 116.863281 75.441406 117.378906 75.085938 117.898438 C 74.589844 118.582031 74.210938 119.03125 73.953125 119.246094 C 73.699219 119.457031 73.476562 119.566406 73.289062 119.566406 C 72.867188 119.566406 72.652344 119.335938 72.652344 118.875 C 72.652344 118.40625 72.957031 117.722656 73.566406 116.8125 C 77.226562 111.460938 80.511719 107.027344 83.425781 103.507812 L 83.402344 103.507812 C 81.441406 105.34375 80.382812 106.261719 80.21875 106.261719 C 80.308594 106.039062 81.902344 104.519531 85.003906 101.707031 C 85.410156 101.335938 85.773438 101.152344 86.089844 101.152344 C 86.359375 101.152344 86.5 101.1875 86.5 101.261719 C 86.5 101.300781 86.351562 101.492188 86.0625 101.839844 C 85.042969 103.027344 83.34375 105.191406 80.964844 108.339844 C 78.78125 111.191406 76.980469 113.664062 75.558594 115.757812 C 74.378906 117.480469 73.785156 118.445312 73.785156 118.648438 L 73.785156 118.730469 C 73.804688 118.75 73.824219 118.757812 73.84375 118.757812 C 74.046875 118.757812 75.070312 117.445312 76.917969 114.816406 C 79.25 111.5 81.09375 109.0625 82.460938 107.507812 C 84.730469 104.882812 86.476562 103.566406 87.691406 103.566406 C 88.265625 103.566406 88.558594 103.753906 88.558594 104.125 C 88.558594 104.492188 88.171875 105.101562 87.40625 105.941406 C 86.636719 106.785156 86.257812 107.335938 86.257812 107.59375 C 86.257812 107.761719 86.347656 107.84375 86.53125 107.84375 C 86.9375 107.84375 87.597656 107.472656 88.523438 106.726562 C 89.445312 105.972656 89.953125 105.585938 90.050781 105.5625 Z M 90.050781 105.5625 "/>
<path style=" stroke:none;fill-rule:nonzero;fill:rgb(37.254903%,0%,0%);fill-opacity:1;" d="M 96.914062 105.621094 C 96.914062 105.847656 96.5625 106.183594 95.863281 106.625 C 95.164062 107.066406 94.675781 107.289062 94.394531 107.289062 C 94.152344 107.289062 93.988281 107.261719 93.898438 107.203125 C 92.605469 108.113281 91.550781 108.570312 90.742188 108.570312 C 89.835938 108.570312 89.382812 108.226562 89.382812 107.542969 C 89.382812 106.859375 89.640625 106.21875 90.15625 105.621094 L 90.15625 105.597656 C 89.679688 106.074219 89.386719 106.3125 89.273438 106.3125 C 89.257812 106.3125 89.246094 106.304688 89.246094 106.285156 L 89.246094 106.238281 C 89.246094 106.238281 89.257812 106.199219 89.273438 106.117188 C 89.84375 105.511719 90.617188 104.941406 91.597656 104.402344 C 92.652344 103.84375 93.554688 103.558594 94.3125 103.542969 L 94.480469 103.675781 C 94.460938 103.695312 94.363281 103.75 94.175781 103.84375 C 93.566406 104.144531 92.835938 104.726562 91.984375 105.597656 C 91.042969 106.554688 90.574219 107.328125 90.574219 107.902344 C 90.574219 108.164062 90.703125 108.292969 90.960938 108.292969 C 91.683594 108.292969 92.542969 107.726562 93.539062 106.589844 C 93.777344 105.628906 94.238281 105.003906 94.925781 104.703125 C 94.980469 104.574219 95.007812 104.347656 95.007812 104.011719 C 95.007812 103.976562 94.992188 103.925781 94.964844 103.863281 C 94.9375 103.792969 94.925781 103.742188 94.925781 103.703125 C 94.925781 103.628906 94.980469 103.59375 95.09375 103.59375 C 95.253906 103.59375 95.394531 103.710938 95.511719 103.945312 C 95.632812 104.179688 95.695312 104.382812 95.695312 104.570312 C 95.695312 105.214844 95.167969 106.03125 94.117188 107.011719 C 94.171875 107.027344 94.230469 107.035156 94.285156 107.035156 C 94.710938 107.035156 95.1875 106.816406 95.722656 106.371094 C 96.332031 105.871094 96.722656 105.601562 96.890625 105.5625 C 96.90625 105.585938 96.914062 105.605469 96.914062 105.621094 Z M 96.914062 105.621094 "/>
<path style=" stroke:none;fill-rule:nonzero;fill:rgb(37.254903%,0%,0%);fill-opacity:1;" d="M 102.539062 105.539062 C 102.445312 105.820312 102.003906 106.261719 101.214844 106.867188 C 100.578125 107.375 100.019531 107.769531 99.535156 108.054688 C 99.046875 108.339844 98.570312 108.484375 98.105469 108.484375 C 97.550781 108.484375 97.273438 108.292969 97.273438 107.902344 C 97.273438 107.457031 97.6875 106.730469 98.507812 105.730469 C 99.332031 104.734375 99.742188 104.222656 99.742188 104.207031 C 99.742188 104.078125 99.679688 104.011719 99.550781 104.011719 C 99.234375 104.011719 98.648438 104.332031 97.789062 104.972656 C 96.929688 105.609375 96.484375 105.925781 96.445312 105.925781 C 96.425781 105.925781 96.398438 105.90625 96.359375 105.875 C 96.359375 105.796875 96.371094 105.75 96.394531 105.730469 C 98.089844 104.273438 99.328125 103.542969 100.105469 103.542969 C 100.675781 103.542969 100.960938 103.746094 100.960938 104.148438 C 100.960938 104.464844 100.601562 105.066406 99.878906 105.957031 C 99.160156 106.847656 98.804688 107.417969 98.804688 107.675781 L 98.828125 107.785156 C 98.898438 107.824219 98.972656 107.84375 99.046875 107.84375 C 99.382812 107.84375 99.957031 107.53125 100.769531 106.902344 C 101.300781 106.4375 101.835938 105.980469 102.371094 105.539062 Z M 102.539062 105.539062 "/>
<path style=" stroke:none;fill-rule:nonzero;fill:rgb(37.254903%,0%,0%);fill-opacity:1;" d="M 111.433594 105.597656 C 111.433594 105.816406 110.804688 106.410156 109.546875 107.375 C 108.566406 108.113281 107.773438 108.484375 107.167969 108.484375 C 106.589844 108.484375 106.304688 108.261719 106.304688 107.820312 C 106.304688 107.265625 106.8125 106.476562 107.832031 105.453125 L 107.773438 105.402344 C 105.296875 107.457031 103.65625 108.484375 102.84375 108.484375 C 102.234375 108.484375 101.929688 108.261719 101.929688 107.820312 C 101.929688 107.09375 102.761719 105.9375 104.421875 104.34375 L 104.421875 104.316406 C 104.125 104.519531 103.683594 104.851562 103.097656 105.320312 C 102.871094 105.519531 102.539062 105.808594 102.097656 106.175781 C 101.984375 106.25 101.894531 106.285156 101.820312 106.285156 L 101.792969 106.238281 C 102.109375 105.738281 102.707031 105.191406 103.589844 104.59375 C 104.546875 103.945312 105.304688 103.617188 105.859375 103.617188 C 106.042969 103.617188 106.15625 103.648438 106.195312 103.703125 C 106.175781 103.742188 105.667969 104.402344 104.675781 105.679688 C 103.839844 106.738281 103.421875 107.394531 103.421875 107.652344 C 103.441406 107.667969 103.46875 107.707031 103.507812 107.761719 C 103.546875 107.816406 103.609375 107.84375 103.699219 107.84375 C 104.140625 107.84375 105.980469 106.519531 109.21875 103.871094 C 109.457031 103.667969 109.722656 103.566406 110.015625 103.566406 C 110.40625 103.566406 110.601562 103.613281 110.601562 103.703125 C 110.601562 103.800781 110.136719 104.402344 109.199219 105.511719 C 108.265625 106.625 107.796875 107.320312 107.796875 107.59375 C 107.796875 107.664062 107.816406 107.726562 107.855469 107.777344 C 107.894531 107.824219 107.953125 107.84375 108.023438 107.84375 C 108.652344 107.84375 109.667969 107.140625 111.074219 105.730469 L 111.433594 105.5625 Z M 111.433594 105.597656 "/>
<path style=" stroke:none;fill-rule:nonzero;fill:rgb(37.254903%,0%,0%);fill-opacity:1;" d="M 117.359375 105.597656 C 117.359375 105.652344 117.273438 105.761719 117.105469 105.925781 C 116.421875 106.632812 115.667969 107.226562 114.839844 107.703125 C 113.859375 108.28125 112.953125 108.570312 112.117188 108.570312 C 111.105469 108.570312 110.597656 108.226562 110.597656 107.542969 C 110.597656 107.042969 110.820312 106.496094 111.261719 105.898438 L 111.238281 105.898438 C 110.980469 106.175781 110.804688 106.3125 110.707031 106.3125 C 110.691406 106.3125 110.675781 106.304688 110.65625 106.285156 L 110.65625 106.238281 C 110.65625 106.238281 110.664062 106.199219 110.683594 106.117188 C 111.195312 105.546875 111.953125 104.980469 112.949219 104.425781 C 114.023438 103.855469 114.902344 103.566406 115.585938 103.566406 C 116.117188 103.566406 116.382812 103.808594 116.382812 104.292969 C 116.382812 105.121094 114.992188 105.980469 112.203125 106.867188 C 112.089844 107.238281 112.035156 107.492188 112.035156 107.625 C 112.035156 107.957031 112.246094 108.121094 112.671875 108.121094 C 113.246094 108.121094 113.925781 107.902344 114.695312 107.457031 C 115.234375 107.144531 115.816406 106.726562 116.441406 106.203125 C 116.980469 105.742188 117.257812 105.511719 117.273438 105.511719 C 117.328125 105.511719 117.359375 105.542969 117.359375 105.597656 Z M 115.417969 104.171875 C 115.417969 104.011719 115.304688 103.929688 115.082031 103.929688 C 114.714844 103.929688 114.207031 104.28125 113.5625 104.980469 C 113.0625 105.519531 112.667969 106.050781 112.371094 106.566406 L 112.371094 106.589844 C 114.402344 105.945312 115.417969 105.140625 115.417969 104.171875 Z M 115.417969 104.171875 "/>
<path style=" stroke:none;fill-rule:nonzero;fill:rgb(37.254903%,0%,0%);fill-opacity:1;" d="M 127.191406 105.539062 C 127.09375 105.820312 126.652344 106.261719 125.863281 106.867188 C 125.230469 107.375 124.671875 107.769531 124.183594 108.054688 C 123.699219 108.339844 123.222656 108.484375 122.757812 108.484375 C 122.203125 108.484375 121.925781 108.292969 121.925781 107.902344 C 121.925781 107.457031 122.335938 106.730469 123.160156 105.730469 C 123.984375 104.734375 124.394531 104.222656 124.394531 104.207031 C 124.394531 104.078125 124.328125 104.011719 124.203125 104.011719 C 123.886719 104.011719 123.296875 104.332031 122.4375 104.972656 C 121.582031 105.609375 121.132812 105.925781 121.09375 105.925781 C 121.078125 105.925781 121.050781 105.90625 121.011719 105.875 C 121.011719 105.796875 121.023438 105.75 121.042969 105.730469 C 122.738281 104.273438 123.976562 103.542969 124.753906 103.542969 C 125.328125 103.542969 125.613281 103.746094 125.613281 104.148438 C 125.613281 104.464844 125.25 105.066406 124.527344 105.957031 C 123.8125 106.847656 123.453125 107.417969 123.453125 107.675781 L 123.480469 107.785156 C 123.550781 107.824219 123.625 107.84375 123.699219 107.84375 C 124.035156 107.84375 124.605469 107.53125 125.417969 106.902344 C 125.949219 106.4375 126.484375 105.980469 127.023438 105.539062 Z M 127.191406 105.539062 "/>
<path style=" stroke:none;fill-rule:nonzero;fill:rgb(37.254903%,0%,0%);fill-opacity:1;" d="M 134.113281 105.621094 C 134.113281 105.847656 133.761719 106.183594 133.0625 106.625 C 132.359375 107.066406 131.871094 107.289062 131.59375 107.289062 C 131.351562 107.289062 131.183594 107.261719 131.097656 107.203125 C 129.804688 108.113281 128.75 108.570312 127.941406 108.570312 C 127.03125 108.570312 126.578125 108.226562 126.578125 107.542969 C 126.578125 106.859375 126.835938 106.21875 127.351562 105.621094 L 127.351562 105.597656 C 126.875 106.074219 126.582031 106.3125 126.46875 106.3125 C 126.453125 106.3125 126.445312 106.304688 126.445312 106.285156 L 126.445312 106.238281 C 126.445312 106.238281 126.453125 106.199219 126.46875 106.117188 C 127.039062 105.511719 127.816406 104.941406 128.796875 104.402344 C 129.847656 103.84375 130.753906 103.558594 131.507812 103.542969 L 131.675781 103.675781 C 131.660156 103.695312 131.558594 103.75 131.375 103.84375 C 130.761719 104.144531 130.03125 104.726562 129.183594 105.597656 C 128.242188 106.554688 127.773438 107.328125 127.773438 107.902344 C 127.773438 108.164062 127.898438 108.292969 128.15625 108.292969 C 128.878906 108.292969 129.738281 107.726562 130.734375 106.589844 C 130.976562 105.628906 131.4375 105.003906 132.121094 104.703125 C 132.175781 104.574219 132.207031 104.347656 132.207031 104.011719 C 132.207031 103.976562 132.191406 103.925781 132.164062 103.863281 C 132.132812 103.792969 132.121094 103.742188 132.121094 103.703125 C 132.121094 103.628906 132.175781 103.59375 132.289062 103.59375 C 132.449219 103.59375 132.589844 103.710938 132.710938 103.945312 C 132.832031 104.179688 132.894531 104.382812 132.894531 104.570312 C 132.894531 105.214844 132.367188 106.03125 131.316406 107.011719 C 131.371094 107.027344 131.425781 107.035156 131.484375 107.035156 C 131.90625 107.035156 132.386719 106.816406 132.917969 106.371094 C 133.527344 105.871094 133.917969 105.601562 134.085938 105.5625 C 134.101562 105.585938 134.113281 105.605469 134.113281 105.621094 Z M 134.113281 105.621094 "/>
<path style=" stroke:none;fill-rule:nonzero;fill:rgb(37.254903%,0%,0%);fill-opacity:1;" d="M 139.847656 105.757812 C 139.847656 106 139.253906 106.527344 138.074219 107.347656 C 136.894531 108.164062 135.804688 108.570312 134.808594 108.570312 C 133.828125 108.570312 133.339844 108.234375 133.339844 107.566406 C 133.339844 106.996094 133.605469 106.375 134.136719 105.707031 L 134.113281 105.707031 C 133.945312 105.890625 133.679688 106.085938 133.3125 106.285156 L 133.3125 106.238281 C 133.3125 106.199219 133.320312 106.160156 133.339844 106.117188 C 133.761719 105.601562 134.519531 105.050781 135.605469 104.460938 C 136.699219 103.867188 137.546875 103.566406 138.160156 103.566406 C 138.800781 103.566406 139.125 103.828125 139.125 104.34375 C 139.125 104.625 139.027344 104.898438 138.832031 105.167969 C 138.640625 105.433594 138.414062 105.5625 138.160156 105.5625 C 137.902344 105.5625 137.773438 105.433594 137.773438 105.175781 C 137.773438 105.0625 137.84375 104.878906 137.992188 104.621094 C 138.136719 104.363281 138.210938 104.167969 138.210938 104.039062 C 138.210938 103.910156 138.117188 103.84375 137.933594 103.84375 C 137.472656 103.84375 136.824219 104.34375 135.992188 105.335938 C 135.164062 106.324219 134.75 107.078125 134.75 107.59375 C 134.75 107.945312 134.960938 108.121094 135.386719 108.121094 C 136.144531 108.121094 137.070312 107.726562 138.167969 106.925781 C 139.269531 106.132812 139.820312 105.730469 139.820312 105.730469 L 139.847656 105.730469 Z M 139.847656 105.757812 "/>
<path style=" stroke:none;fill-rule:nonzero;fill:rgb(37.254903%,0%,0%);fill-opacity:1;" d="M 154.167969 105.597656 C 154.167969 105.816406 153.53125 106.410156 152.253906 107.375 C 151.257812 108.113281 150.425781 108.484375 149.761719 108.484375 C 149.226562 108.484375 148.960938 108.273438 148.960938 107.84375 C 148.960938 107.417969 149.367188 106.726562 150.179688 105.765625 C 150.988281 104.800781 151.398438 104.269531 151.398438 104.171875 C 151.398438 104.085938 151.332031 104.039062 151.203125 104.039062 C 150.648438 104.039062 149.503906 104.769531 147.769531 106.238281 C 146.035156 107.699219 144.980469 108.425781 144.613281 108.425781 C 144.3125 108.425781 144.167969 108.367188 144.167969 108.257812 C 144.167969 107.886719 144.632812 107.136719 145.5625 106 C 146.496094 104.863281 146.964844 104.265625 146.964844 104.207031 C 146.964844 104.09375 146.890625 104.039062 146.746094 104.039062 C 146.246094 104.039062 145.101562 104.769531 143.3125 106.238281 C 141.519531 107.699219 140.476562 108.425781 140.179688 108.425781 C 139.863281 108.425781 139.707031 108.367188 139.707031 108.257812 C 139.707031 108 140.148438 107.285156 141.035156 106.109375 C 141.925781 104.929688 142.378906 104.332031 142.394531 104.316406 C 142.355469 104.207031 142.300781 104.148438 142.226562 104.148438 C 141.914062 104.148438 141.351562 104.511719 140.539062 105.234375 C 139.726562 105.953125 139.3125 106.3125 139.289062 106.3125 C 139.21875 106.3125 139.179688 106.277344 139.179688 106.203125 C 139.179688 106.089844 139.78125 105.527344 140.984375 104.511719 C 141.722656 103.882812 142.371094 103.566406 142.925781 103.566406 C 143.382812 103.566406 143.613281 103.78125 143.613281 104.207031 C 143.613281 104.523438 143.019531 105.449219 141.839844 106.984375 L 141.925781 107.011719 C 144.640625 104.714844 146.429688 103.566406 147.300781 103.566406 C 147.886719 103.566406 148.179688 103.78125 148.179688 104.207031 C 148.179688 104.523438 147.929688 104.996094 147.433594 105.621094 C 147.046875 106.066406 146.660156 106.519531 146.273438 106.984375 L 146.359375 107.011719 C 149.074219 104.714844 150.871094 103.566406 151.757812 103.566406 C 152.328125 103.566406 152.613281 103.769531 152.613281 104.171875 C 152.613281 104.492188 152.253906 105.105469 151.53125 106 C 150.8125 106.898438 150.457031 107.464844 150.457031 107.703125 L 150.480469 107.820312 C 150.535156 107.835938 150.601562 107.84375 150.675781 107.84375 C 151.066406 107.84375 151.65625 107.519531 152.445312 106.867188 C 153.449219 106.078125 154.023438 105.644531 154.167969 105.5625 Z M 154.167969 105.597656 "/>
<path style=" stroke:none;fill-rule:nonzero;fill:rgb(37.254903%,0%,0%);fill-opacity:1;" d="M 163.035156 105.597656 C 163.035156 105.816406 162.402344 106.410156 161.144531 107.375 C 160.164062 108.113281 159.371094 108.484375 158.769531 108.484375 C 158.191406 108.484375 157.902344 108.261719 157.902344 107.820312 C 157.902344 107.265625 158.410156 106.476562 159.429688 105.453125 L 159.371094 105.402344 C 156.898438 107.457031 155.253906 108.484375 154.445312 108.484375 C 153.832031 108.484375 153.527344 108.261719 153.527344 107.820312 C 153.527344 107.09375 154.359375 105.9375 156.023438 104.34375 L 156.023438 104.316406 C 155.722656 104.519531 155.285156 104.851562 154.695312 105.320312 C 154.472656 105.519531 154.136719 105.808594 153.695312 106.175781 C 153.585938 106.25 153.492188 106.285156 153.417969 106.285156 L 153.394531 106.238281 C 153.707031 105.738281 154.304688 105.191406 155.191406 104.59375 C 156.148438 103.945312 156.902344 103.617188 157.457031 103.617188 C 157.644531 103.617188 157.753906 103.648438 157.792969 103.703125 C 157.777344 103.742188 157.269531 104.402344 156.273438 105.679688 C 155.4375 106.738281 155.023438 107.394531 155.023438 107.652344 C 155.039062 107.667969 155.066406 107.707031 155.105469 107.761719 C 155.144531 107.816406 155.210938 107.84375 155.300781 107.84375 C 155.742188 107.84375 157.578125 106.519531 160.816406 103.871094 C 161.054688 103.667969 161.324219 103.566406 161.613281 103.566406 C 162.003906 103.566406 162.203125 103.613281 162.203125 103.703125 C 162.203125 103.800781 161.734375 104.402344 160.800781 105.511719 C 159.863281 106.625 159.398438 107.320312 159.398438 107.59375 C 159.398438 107.664062 159.417969 107.726562 159.457031 107.777344 C 159.496094 107.824219 159.550781 107.84375 159.625 107.84375 C 160.25 107.84375 161.265625 107.140625 162.671875 105.730469 L 163.035156 105.5625 Z M 163.035156 105.597656 "/>
<path style=" stroke:none;fill-rule:nonzero;fill:rgb(37.254903%,0%,0%);fill-opacity:1;" d="M 171.453125 99.039062 C 171.453125 99.503906 169.375 101.914062 165.222656 106.261719 C 165.085938 106.390625 165.003906 106.457031 164.96875 106.457031 L 164.859375 106.457031 C 164.835938 106.4375 164.816406 106.410156 164.800781 106.371094 C 164.914062 106.132812 165.308594 105.546875 165.992188 104.621094 C 166.472656 103.992188 166.945312 103.371094 167.40625 102.757812 C 167.554688 102.558594 168.238281 101.566406 169.453125 99.785156 C 169.859375 99.199219 170.421875 98.902344 171.140625 98.902344 C 171.347656 98.902344 171.453125 98.949219 171.453125 99.039062 Z M 164.996094 107.398438 C 164.996094 107.65625 164.8125 107.917969 164.449219 108.179688 C 164.089844 108.4375 163.773438 108.570312 163.5 108.570312 C 163.425781 108.488281 163.390625 108.3125 163.390625 108.039062 C 163.390625 107.410156 163.769531 107.09375 164.523438 107.09375 C 164.835938 107.09375 164.996094 107.195312 164.996094 107.398438 Z M 164.996094 107.398438 "/>
</g>
</svg>
